<svg width="122" height="33" viewBox="0 0 122 33" xmlns="http://www.w3.org/2000/svg" xmlns:xlink="http://www.w3.org/1999/xlink">
    <defs>
        <path id="m9cfmfi6aa" d="M0 32.903h121.48V0H0z"/>
    </defs>
    <g fill="none" fill-rule="evenodd">
        <path d="M19.432 22.045c-.047-2.342-1.137-3.427-5.07-3.427h-3.885v7.373c1.041.044 1.8.044 2.937.044 4.217 0 6.018-.608 6.018-3.512v-.478zm-.095-12.75c0-2.688-1.895-3.122-5.923-3.122-1.043 0-1.848 0-2.937.043v6.809h3.79c4.17 0 5.07-1.128 5.07-3.426v-.304zm-7.145 22.94H0V.015h12.287C23.517.016 29.77 1.36 29.77 8.82v.39c0 2.775-1.09 5.204-3.837 6.548 3.032 1.301 4.027 4.032 4.027 6.418v.434c0 8.413-7.06 9.626-17.77 9.626z" fill="#FFF"/>
        <mask id="4jgkr2ev6b" fill="#fff">
            <use xlink:href="#m9cfmfi6aa"/>
        </mask>
        <path fill="#FFF" mask="url(#4jgkr2ev6b)" d="M49.48 32.235h10.494V0H49.48zM34.144 32.235h10.495v-19.26H34.144zM82.655 32.235 75.22 20.674v11.561H64.775V0H75.22v17.785l7.676-11.25h10.835L85.084 18.94l9.086 13.295zM111.423 21.297h-2.235c-2.964 0-4.325.311-4.325 2.802v.933c0 1.734 1.022 2.223 2.528 2.223 1.652 0 3.255-.578 4.032-.933v-5.025zm.534 10.938V30.59c-1.895 1.157-5.247 2.313-8.843 2.313-5.296 0-8.161-2.58-8.161-7.337V24.5c0-6.937 6.072-7.56 14.138-7.56h1.846v-1.29c0-2.623-.63-3.156-4.47-3.156-2.234 0-6.121.133-9.329.445v-5.38c1.944-.579 6.754-1.69 11.759-1.69 8.501 0 12.584 2.4 12.584 9.782v16.585h-9.524zM34.144 9.288h10.495V0H34.144z"/>
    </g>
</svg>
