<svg width="100%" height="100%" viewBox="0 0 265 79" fill="none" xmlns="http://www.w3.org/2000/svg">
	<g clip-path="url(#clip0_1209:22237)">
		<path d="M98.9439 11.2693H106.834L115.791 36.7642H108.194L107.009 32.9793H98.7158L97.5785 36.7642H89.9487L98.9439 11.2693ZM100.297 27.7693H105.442L102.907 19.4267H102.833L100.297 27.7693Z" fill="#141969" />
		<path d="M138.624 9.26819H145.564V36.7642H138.624V9.26819Z" fill="#141969" />
		<path d="M148.937 9.26819H155.876V18.9184C156.531 18.1368 157.349 17.5062 158.275 17.0702C159.2 16.6343 160.21 16.4036 161.234 16.3942C165.712 16.3942 168.725 19.7059 168.725 26.6262C168.725 33.62 165.567 37.1521 161.456 37.1521C158.814 37.1521 157.014 36.1324 155.473 34.5309L155.032 36.7525H148.937V9.26819ZM158.921 32.1389C161.015 32.1389 161.898 29.7705 161.898 26.638C161.898 23.3615 161.009 21.4661 158.921 21.4661C157.71 21.4661 156.723 22.0538 155.876 22.9354V30.7666C156.794 31.7011 157.71 32.1389 158.921 32.1389Z" fill="#141969" />
		<path d="M180.833 16.3707C186.706 16.3707 191.149 20.52 191.149 26.638C191.149 33.1939 186.961 37.2374 180.833 37.2374C174.628 37.2374 170.481 33.1939 170.481 26.638C170.481 20.5082 174.921 16.3707 180.833 16.3707ZM180.833 32.283C183.072 32.283 184.21 30.0996 184.21 26.6762C184.21 23.4438 182.924 21.3222 180.833 21.3222C178.742 21.3222 177.418 23.4468 177.418 26.6792C177.418 30.0996 178.558 32.283 180.833 32.283Z" fill="#141969" />
		<path d="M193.637 16.8438H200.1L200.5 19.6472C202.043 16.8791 203.989 16.2238 206.083 16.2238C206.827 16.2271 207.568 16.3259 208.287 16.5176L207.481 22.7473C206.565 22.4654 205.611 22.3295 204.652 22.3448C202.78 22.3448 201.531 23.3997 200.541 25.3303V36.7672H193.637V16.8438Z" fill="#141969" />
		<path d="M211.053 35.2714C210.338 34.507 209.933 33.5076 209.916 32.4651C209.916 31.1193 210.65 29.8439 212.045 29.0447C211.151 28.4383 210.423 27.6224 209.923 26.6695C209.423 25.7165 209.168 24.656 209.181 23.5819C209.181 19.2475 212.999 16.3707 218.138 16.3707C220.221 16.3248 222.269 16.9078 224.011 18.0427C225.406 17.0965 227.242 16.4441 229.884 16.4441V20.4847C228.711 20.4677 227.539 20.59 226.395 20.849C226.786 21.7081 226.988 22.6396 226.988 23.5819C226.988 28.2424 222.693 30.8284 218.141 30.8284C217.189 30.8328 216.24 30.7223 215.315 30.4992C215.153 30.5846 215.016 30.7112 214.919 30.8661C214.823 31.021 214.769 31.1986 214.764 31.3808C214.764 32.183 215.679 32.4739 219.462 32.5562C225.96 32.7031 229.301 34.5221 229.301 38.4568C229.301 42.2769 225.995 44.4309 218.653 44.4309C212.341 44.4309 208.34 42.7912 208.34 39.2591C208.337 37.4548 209.255 36.2177 211.053 35.2714ZM215.348 37.4548C215.111 37.65 214.922 37.8957 214.795 38.1736C214.668 38.4514 214.606 38.7542 214.613 39.0592C214.613 40.076 215.605 40.5873 218.65 40.5873C221.955 40.5873 223.128 40.1876 223.128 39.2414C223.128 38.2952 222.432 37.9308 218.982 37.8544C217.761 37.832 216.544 37.6982 215.348 37.4548ZM220.59 23.6172C220.59 21.7952 219.672 20.5934 218.132 20.5934C216.651 20.5934 215.67 21.7952 215.67 23.6172C215.67 25.4391 216.663 26.5557 218.132 26.5557C219.678 26.5645 220.59 25.4009 220.59 23.6172Z" fill="#141969" />
		<path d="M122.372 47.3812C128.246 47.3812 132.685 51.5305 132.685 57.6662C132.685 64.2191 128.5 68.2626 122.372 68.2626C116.167 68.2626 112.021 64.2191 112.021 57.6662C112.021 51.5305 116.46 47.3812 122.372 47.3812ZM122.372 63.2964C124.611 63.2964 125.749 61.1101 125.749 57.6867C125.749 54.4543 124.463 52.3327 122.372 52.3327C120.281 52.3327 118.957 54.4455 118.957 57.6867C118.957 61.1101 120.095 63.2964 122.372 63.2964Z" fill="#141969" />
		<path d="M135.164 47.8543H141.772L142.03 49.785C143.57 48.398 145.773 47.3812 147.607 47.3812C150.252 47.3812 151.827 48.398 152.675 50.0759C154.656 48.2922 156.637 47.3812 158.986 47.3812C163.133 47.3812 165.082 50.0759 165.082 54.519V67.7748H158.178V54.3368C158.178 52.988 157.585 52.2974 156.528 52.2974C155.539 52.2974 154.508 52.8851 153.566 53.8989C153.566 54.2986 153.602 54.7364 153.602 55.1743V67.7748H146.692V54.3368C146.692 52.9557 146.138 52.2974 145.039 52.2974C144.011 52.2974 142.8 52.988 142.077 54.0459V67.7748H135.176L135.164 47.8543Z" fill="#141969" />
		<path d="M168.461 47.8543H175.069L175.324 49.785C176.867 48.398 179.071 47.3812 180.907 47.3812C183.549 47.3812 185.128 48.398 185.972 50.0759C187.953 48.2922 189.938 47.3812 192.287 47.3812C196.433 47.3812 198.379 50.0759 198.379 54.519V67.7748H191.478V54.3368C191.478 52.988 190.886 52.2974 189.825 52.2974C188.836 52.2974 187.808 52.8851 186.863 53.8989C186.863 54.2986 186.902 54.7364 186.902 55.1743V67.7748H180.001V54.3368C180.001 52.9557 179.45 52.2974 178.351 52.2974C177.32 52.2974 176.109 52.988 175.389 54.0459V67.7748H168.461V47.8543Z" fill="#141969" />
		<path d="M201.605 47.8542H208.503V61.1101C208.503 62.3854 209.021 63.2963 210.416 63.2963C211.625 63.2963 212.688 62.6028 213.645 61.5126V47.8542H220.546V67.7747H214.074L213.704 65.5913C212.383 67.0107 210.182 68.236 207.869 68.236C203.355 68.236 201.593 65.6148 201.593 60.9161L201.605 47.8542Z" fill="#141969" />
		<path d="M223.916 47.8543H230.488L230.785 50.0024C232.18 48.6184 234.2 47.3812 236.584 47.3812C241.136 47.3812 242.86 50.0024 242.86 54.663V67.7748H235.959V54.4808C235.959 53.1702 235.408 52.2974 234.016 52.2974C232.876 52.2974 231.738 52.9557 230.82 54.1164V67.7748H223.919L223.916 47.8543Z" fill="#141969" />
		<path d="M255.54 47.3812C261.339 47.3812 265.018 50.9075 265.018 56.4496C265.014 57.4257 264.928 58.3998 264.76 59.3617H252.226C252.593 61.8389 253.843 62.932 256.156 62.932C258.064 62.8976 259.928 62.3524 261.549 61.354L264.343 65.468C261.698 67.3986 258.688 68.2361 255.492 68.2361C249.767 68.2361 245.218 64.416 245.218 57.7484C245.218 51.2425 249.986 47.3812 255.54 47.3812ZM252.311 55.8296H258.588C258.588 53.7167 257.779 52.1152 255.759 52.1152C254.136 52.1152 252.741 53.2436 252.303 55.8296H252.311Z" fill="#141969" />
		<path d="M134.758 31.1898V23.723C134.758 19.3151 132.389 16.3766 126.133 16.3766C123.556 16.3766 120.621 17.1289 117.79 18.4336C117.692 18.4777 116.857 18.892 116.759 18.939L118.536 24.0109L119.656 23.4644C122.298 22.2419 124.045 21.6425 125.76 21.6425C127.155 21.6425 127.925 22.2302 127.925 23.4644V24.5575C119.336 25.3215 116.51 28.1984 116.51 31.9509C116.51 35.1187 118.969 37.2403 122.345 37.2403C125.138 37.2403 126.897 36.2941 128.624 34.3253C130.019 36.441 131.779 36.8759 136.112 36.8759V32.3917C135.288 32.3917 134.758 31.992 134.758 31.1898ZM127.946 31.228C127.612 31.6444 127.188 31.9816 126.706 32.215C126.224 32.4483 125.695 32.5719 125.159 32.5768C124.057 32.5768 123.358 31.8481 123.358 30.9371C123.358 29.0799 125.265 28.169 127.946 27.9986V31.228Z" fill="#141969" />
		<path d="M90.7778 42.2917H97.8655V52.133H97.7856L104.894 42.2917H112.539L103.825 54.4867V54.5573L113.303 67.7807H104.989L97.7856 57.4459H97.8655V67.7837H90.7778V42.2917Z" fill="#141969" />
		<path d="M39.8162 0C17.8629 0 0 17.7224 0 39.5029C0 61.2835 17.8629 79.0029 39.8162 79.0029C61.7695 79.0029 79.6294 61.2835 79.6294 39.5029C79.6294 17.7224 61.7695 0 39.8162 0ZM68.5284 42.3504L70.5543 44.8746C70.5809 44.9079 70.5969 44.9483 70.6 44.9906C70.6032 45.033 70.5934 45.0753 70.572 45.112C70.5506 45.1488 70.5185 45.1783 70.48 45.1968C70.4415 45.2152 70.3982 45.2217 70.3559 45.2155L67.1363 44.7336C67.0883 44.7251 67.0388 44.7337 66.9965 44.7579C66.9543 44.7821 66.922 44.8203 66.9053 44.8658L65.7206 47.8661C65.7049 47.9056 65.6776 47.9395 65.6422 47.9634C65.6068 47.9874 65.5649 48.0002 65.5221 48.0002C65.4793 48.0002 65.4375 47.9874 65.4021 47.9634C65.3667 47.9395 65.3394 47.9056 65.3237 47.8661L64.1389 44.8629C64.1218 44.8185 64.0898 44.7814 64.0482 44.7578C64.0066 44.7342 63.9581 44.7257 63.9109 44.7336L60.6973 45.2155C60.6547 45.2225 60.611 45.2165 60.5719 45.1983C60.5329 45.1802 60.5003 45.1507 60.4784 45.1137C60.4566 45.0768 60.4466 45.0342 60.4497 44.9915C60.4528 44.9488 60.4689 44.908 60.4959 44.8746L62.5277 42.3504C62.558 42.3129 62.5745 42.2662 62.5745 42.2182C62.5745 42.1701 62.558 42.1234 62.5277 42.0859L60.4959 39.5676C60.4698 39.534 60.4543 39.4935 60.4514 39.4513C60.4484 39.409 60.4582 39.3668 60.4794 39.33C60.5007 39.2932 60.5324 39.2635 60.5706 39.2446C60.6089 39.2257 60.6519 39.2184 60.6943 39.2238L63.9079 39.7057C63.9554 39.7128 64.004 39.7036 64.0455 39.6795C64.087 39.6555 64.1189 39.618 64.136 39.5735L65.3207 36.5761C65.3364 36.5366 65.3637 36.5027 65.3991 36.4787C65.4345 36.4548 65.4763 36.442 65.5192 36.442C65.562 36.442 65.6038 36.4548 65.6392 36.4787C65.6746 36.5027 65.7019 36.5366 65.7176 36.5761L66.9023 39.5735C66.92 39.6183 66.9525 39.6558 66.9944 39.6798C67.0364 39.7039 67.0854 39.713 67.1334 39.7057L70.3529 39.2238C70.3958 39.2169 70.4397 39.2231 70.4789 39.2416C70.5181 39.2601 70.5506 39.2901 70.5722 39.3275C70.5938 39.3648 70.6033 39.4079 70.5996 39.4508C70.5959 39.4937 70.579 39.5344 70.5513 39.5676L68.5254 42.0889C68.4958 42.1263 68.4799 42.1726 68.4805 42.2201C68.481 42.2677 68.4979 42.3137 68.5284 42.3504ZM57.4244 53.7402C57.6229 53.7255 57.8272 53.7196 58.0168 53.7196H58.3574C58.4235 53.7212 58.4882 53.738 58.5466 53.7686C58.605 53.7992 58.6555 53.8429 58.694 53.8962C58.7324 53.9495 58.7579 54.0109 58.7684 54.0756C58.7789 54.1404 58.774 54.2066 58.7543 54.2692C58.5484 54.9205 58.3041 55.5593 58.0227 56.1822C57.991 56.2542 57.9394 56.3158 57.8739 56.36C57.8084 56.4042 57.7316 56.4291 57.6525 56.4319C54.664 56.5642 51.9983 58.1951 48.9239 58.1951C45.7014 58.1951 42.9469 56.3879 39.7984 56.3879C36.65 56.3879 33.8747 58.1892 30.667 58.1951C27.5837 58.1951 24.9122 56.5642 21.9059 56.4319C21.8265 56.4283 21.7498 56.4031 21.6839 56.359C21.6181 56.315 21.5658 56.2538 21.5327 56.1822C21.2545 55.5586 21.0122 54.9199 20.807 54.2692C20.7872 54.2064 20.7824 54.1399 20.7931 54.0749C20.8037 54.01 20.8294 53.9484 20.8682 53.8951C20.9071 53.8417 20.9579 53.7981 21.0167 53.7676C21.0754 53.7372 21.1406 53.7208 21.2069 53.7196H21.5741C21.7785 53.7196 21.9829 53.7196 22.1665 53.7402C22.225 53.7443 22.2836 53.7363 22.3388 53.7168C22.3941 53.6974 22.4446 53.6669 22.4874 53.6272C22.5302 53.5875 22.5643 53.5394 22.5876 53.4861C22.6108 53.4327 22.6228 53.3752 22.6226 53.3171V43.5934C22.5871 40.9046 22.0777 38.733 20.2798 37.0963C20.2385 37.0587 20.2052 37.0134 20.1818 36.963C20.1584 36.9125 20.1454 36.8579 20.1436 36.8024V36.5086V32.6591C20.1443 32.5471 20.1895 32.4399 20.2693 32.3607C20.3492 32.2815 20.4572 32.2367 20.5701 32.2359H23.5171C23.6302 32.2359 23.7387 32.2805 23.8187 32.3598C23.8987 32.4392 23.9436 32.5468 23.9436 32.6591V34.1019C23.9444 34.2139 23.9896 34.3211 24.0694 34.4002C24.1492 34.4794 24.2573 34.5243 24.3701 34.525H26.8107C26.9238 34.525 27.0323 34.4804 27.1123 34.4011C27.1923 34.3217 27.2372 34.2141 27.2372 34.1019V32.6591C27.238 32.5466 27.2836 32.4389 27.364 32.3597C27.4445 32.2804 27.5533 32.2359 27.6667 32.2359H30.6108C30.7241 32.2359 30.8329 32.2804 30.9134 32.3597C30.9939 32.4389 31.0394 32.5466 31.0402 32.6591V34.1019C31.0402 34.2141 31.0852 34.3217 31.1651 34.4011C31.2451 34.4804 31.3536 34.525 31.4667 34.525H33.9073C34.0202 34.5243 34.1282 34.4794 34.208 34.4002C34.2878 34.3211 34.333 34.2139 34.3338 34.1019V32.6591C34.3338 32.5468 34.3787 32.4392 34.4587 32.3598C34.5387 32.2805 34.6472 32.2359 34.7603 32.2359H37.7074C37.8202 32.2367 37.9283 32.2815 38.0081 32.3607C38.0879 32.4399 38.1331 32.5471 38.1339 32.6591V34.1019C38.1339 34.2141 38.1788 34.3217 38.2588 34.4011C38.3388 34.4804 38.4473 34.525 38.5604 34.525H41.0009C41.1138 34.5243 41.2218 34.4794 41.3017 34.4002C41.3815 34.3211 41.4267 34.2139 41.4274 34.1019V32.6591C41.4282 32.5471 41.4734 32.4399 41.5532 32.3607C41.633 32.2815 41.7411 32.2367 41.854 32.2359H44.8158C44.9289 32.2359 45.0374 32.2805 45.1174 32.3598C45.1974 32.4392 45.2423 32.5468 45.2423 32.6591V34.1019C45.2431 34.2139 45.2883 34.3211 45.3681 34.4002C45.4479 34.4794 45.5559 34.5243 45.6688 34.525H48.1094C48.2225 34.525 48.331 34.4804 48.411 34.4011C48.491 34.3217 48.5359 34.2141 48.5359 34.1019V32.6591C48.5367 32.5471 48.5819 32.4399 48.6617 32.3607C48.7415 32.2815 48.8495 32.2367 48.9624 32.2359H51.9243C52.0371 32.2367 52.1452 32.2815 52.225 32.3607C52.3048 32.4399 52.35 32.5471 52.3508 32.6591V34.1019C52.3508 34.2141 52.3957 34.3217 52.4757 34.4011C52.5557 34.4804 52.6642 34.525 52.7773 34.525H55.2119C55.325 34.525 55.4335 34.4804 55.5135 34.4011C55.5935 34.3217 55.6384 34.2141 55.6384 34.1019V32.6591C55.6392 32.5466 55.6848 32.4389 55.7652 32.3597C55.8457 32.2804 55.9545 32.2359 56.0679 32.2359H59.012C59.1254 32.2359 59.2342 32.2804 59.3146 32.3597C59.3951 32.4389 59.4407 32.5466 59.4414 32.6591V35.3713V36.8112C59.4384 36.9217 59.3929 37.0269 59.3141 37.1051C57.5074 38.7419 57.0009 40.9252 56.9624 43.6081V53.3347C56.9641 53.392 56.9777 53.4483 57.0023 53.5002C57.0268 53.5521 57.0618 53.5985 57.1051 53.6365C57.1484 53.6745 57.199 53.7033 57.2539 53.7211C57.3089 53.739 57.3669 53.7455 57.4244 53.7402ZM39.8132 60.9926C36.6559 60.9926 33.8895 62.7939 30.6818 62.7939C29.1298 62.7939 27.6815 62.3884 26.2391 61.9623C26.1866 61.9468 26.1374 61.9219 26.0939 61.8888C25.1275 61.1398 24.2492 60.2852 23.4757 59.3411L23.4135 59.2618C23.3592 59.1934 23.3274 59.1102 23.3226 59.0233C23.3177 58.9365 23.3399 58.8503 23.3862 58.7764C23.4325 58.7025 23.5006 58.6446 23.5813 58.6105C23.6619 58.5764 23.7512 58.5678 23.837 58.5859C26.1354 59.0766 28.2798 60.0904 30.673 60.0816C33.8362 60.0816 36.5967 58.2715 39.8103 58.2715C43.0239 58.2715 45.7784 60.0816 48.9387 60.0816C51.3082 60.0816 53.4496 59.0884 55.7332 58.5947C55.8195 58.5759 55.9095 58.5842 55.9908 58.6183C56.0721 58.6524 56.1408 58.7108 56.1873 58.7853C56.2338 58.8598 56.2558 58.9468 56.2503 59.0342C56.2449 59.1217 56.2122 59.2053 56.1567 59.2735L56.1005 59.3411C55.3251 60.2929 54.4415 61.1527 53.4674 61.9035C53.4253 61.9371 53.377 61.962 53.3252 61.977C51.9065 62.3942 50.467 62.8056 48.9357 62.7939C45.7162 62.7939 42.9617 60.9926 39.8132 60.9926ZM46.5218 65.2064C44.8844 65.6425 43.206 65.9103 41.5133 66.0057C40.45 66.0674 39.7866 66.0351 39.7866 66.0351C39.7866 66.0351 39.1231 66.0674 38.0657 66.0057C36.3763 65.9106 34.7011 65.6448 33.0661 65.2123C32.9748 65.1871 32.8946 65.1325 32.8381 65.057C32.7815 64.9815 32.752 64.8895 32.754 64.7955C32.756 64.7015 32.7896 64.6109 32.8493 64.5379C32.9091 64.4649 32.9916 64.4137 33.0839 64.3925C35.3023 63.8753 37.426 62.885 39.8132 62.885C42.2005 62.885 44.2975 63.8665 46.51 64.3866C46.6021 64.4086 46.6842 64.4603 46.7434 64.5337C46.8025 64.6071 46.8354 64.698 46.8368 64.7919C46.8381 64.8859 46.8079 64.9777 46.7509 65.0527C46.6939 65.1278 46.6133 65.1819 46.5218 65.2064ZM24.9536 22.8913C24.9613 22.8778 24.9726 22.8666 24.9862 22.859V21.7247C24.9862 21.6125 25.0311 21.5048 25.1111 21.4255C25.1911 21.3461 25.2996 21.3016 25.4127 21.3016H26.6123C26.7256 21.3015 26.8344 21.346 26.9149 21.4253C26.9953 21.5046 27.0409 21.6122 27.0417 21.7247V22.4211C27.0413 22.4768 27.0521 22.532 27.0734 22.5835C27.0947 22.635 27.1261 22.6819 27.1658 22.7212C27.2055 22.7606 27.2526 22.7918 27.3046 22.8129C27.3565 22.834 27.4121 22.8447 27.4682 22.8443H29.737C29.8501 22.8443 29.9586 22.7997 30.0386 22.7204C30.1186 22.641 30.1635 22.5334 30.1635 22.4211V21.7247C30.1635 21.6125 30.2085 21.5048 30.2884 21.4255C30.3684 21.3461 30.4769 21.3016 30.59 21.3016H32.2901C32.4032 21.3016 32.5117 21.3461 32.5917 21.4255C32.6717 21.5048 32.7166 21.6125 32.7166 21.7247V22.3124V22.4064C32.7166 22.4623 32.7278 22.5175 32.7494 22.5691C32.771 22.6206 32.8027 22.6674 32.8426 22.7067C32.8825 22.746 32.9299 22.7771 32.982 22.7982C33.0341 22.8193 33.0898 22.83 33.1461 22.8296H34.2035C34.2626 22.8298 34.3211 22.8421 34.3752 22.8659C34.4293 22.8897 34.4777 22.9244 34.5176 22.9678C34.5574 23.0112 34.5877 23.0623 34.6066 23.118C34.6254 23.1736 34.6324 23.2325 34.627 23.291L33.9932 30.4434C33.9836 30.5489 33.9344 30.6469 33.8554 30.7182C33.7765 30.7895 33.6734 30.8288 33.5667 30.8283H20.3687C20.2912 30.829 20.2151 30.8085 20.1485 30.7692C20.082 30.7298 20.0275 30.6732 19.9912 30.6053C19.9549 30.5374 19.938 30.461 19.9424 30.3842C19.9468 30.3075 19.9723 30.2334 20.0162 30.1701L24.9536 22.8913ZM24.7759 19.6765C24.7759 18.8273 25.6408 18.7333 26.011 18.3865C26.0303 18.367 26.0533 18.3514 26.0788 18.3408C26.1042 18.3302 26.1315 18.3248 26.1591 18.3248C26.1867 18.3248 26.214 18.3302 26.2394 18.3408C26.2648 18.3514 26.2879 18.367 26.3072 18.3865C26.6774 18.7215 27.5393 18.7862 27.5393 19.6795C27.5351 19.8823 27.4667 20.0786 27.3438 20.2407C27.304 20.2929 27.2525 20.3352 27.1934 20.3642C27.1343 20.3933 27.0692 20.4083 27.0032 20.4082H25.312C25.2495 20.4092 25.1877 20.3959 25.1312 20.3694C25.0747 20.3429 25.0251 20.3039 24.9862 20.2554C24.8518 20.0907 24.7777 19.8856 24.7759 19.6736V19.6765ZM29.7104 19.4855C29.7104 18.3865 30.8477 18.2807 31.2979 17.8253C31.3377 17.7872 31.3907 17.7659 31.446 17.7659C31.5012 17.7659 31.5543 17.7872 31.5941 17.8253C32.0443 18.269 33.1846 18.3336 33.1846 19.4885C33.1778 19.7694 33.0731 20.0394 32.8884 20.2525C32.848 20.301 32.7974 20.3401 32.74 20.367C32.6827 20.3939 32.6201 20.408 32.5567 20.4082H30.3146C30.2515 20.4086 30.1891 20.3948 30.1322 20.3678C30.0752 20.3408 30.0252 20.3014 29.9858 20.2525C29.8075 20.0349 29.7102 19.763 29.7104 19.4826V19.4855ZM38.6996 14.0786C38.6351 13.926 38.6019 13.7622 38.6018 13.5967C38.6008 13.4179 38.6401 13.2411 38.7169 13.0793C38.7936 12.9175 38.9058 12.7748 39.0454 12.6617C39.1849 12.5485 39.3482 12.4677 39.5232 12.4252C39.6983 12.3828 39.8807 12.3797 40.0571 12.4162C40.2336 12.4528 40.3995 12.528 40.5428 12.6364C40.6862 12.7448 40.8032 12.8836 40.8855 13.0427C40.9678 13.2018 41.0131 13.3771 41.0182 13.5559C41.0233 13.7346 40.9881 13.9122 40.915 14.0757C40.9079 14.0903 40.9044 14.1064 40.9045 14.1227C40.9047 14.139 40.9087 14.155 40.9162 14.1695C40.9236 14.184 40.9343 14.1966 40.9475 14.2063C40.9607 14.216 40.9759 14.2226 40.9921 14.2255C43.2223 14.6399 44.8721 16.1914 44.8721 17.9927C44.8617 18.472 44.7538 18.9442 44.5548 19.381C44.3558 19.8179 44.0698 20.2102 43.714 20.5346C43.6335 20.609 43.5279 20.651 43.4178 20.6521H36.1938C36.0839 20.6504 35.9785 20.6086 35.8977 20.5346C35.542 20.21 35.2559 19.8176 35.0565 19.3809C34.857 18.9442 34.7482 18.4721 34.7366 17.9927C34.7366 16.1914 36.3923 14.6399 38.6226 14.2255C38.6387 14.2226 38.654 14.216 38.6671 14.2063C38.6803 14.1966 38.691 14.184 38.6985 14.1695C38.7059 14.155 38.7099 14.139 38.7101 14.1227C38.7103 14.1064 38.7067 14.0903 38.6996 14.0757V14.0786ZM41.8303 30.8283C41.7741 30.8287 41.7185 30.818 41.6666 30.7969C41.6147 30.7758 41.5675 30.7446 41.5278 30.7053C41.4881 30.6659 41.4567 30.6191 41.4354 30.5676C41.4141 30.5161 41.4034 30.4609 41.4038 30.4052V30.1113V28.9682L41.4393 24.7397C41.3712 23.7729 40.7758 23.2704 39.8043 23.2704C38.8329 23.2704 38.1961 23.7993 38.1309 24.7397L38.1102 29.8234V30.4111C38.1102 30.5233 38.0652 30.6309 37.9853 30.7103C37.9053 30.7896 37.7968 30.8342 37.6837 30.8342H35.7703C35.7113 30.8348 35.6528 30.8232 35.5986 30.8001C35.5444 30.777 35.4957 30.7429 35.4556 30.7C35.4154 30.6572 35.3847 30.6064 35.3655 30.5511C35.3462 30.4958 35.3388 30.4371 35.3438 30.3787L36.0073 22.1949C36.0155 22.0891 36.0637 21.9904 36.1423 21.9184C36.2208 21.8465 36.3239 21.8067 36.4308 21.807H43.2223C43.329 21.8074 43.4317 21.8474 43.5101 21.9192C43.5886 21.991 43.637 22.0894 43.6459 22.1949L44.3034 30.3787C44.3079 30.437 44.3002 30.4955 44.2808 30.5506C44.2614 30.6057 44.2307 30.6563 44.1906 30.6991C44.1506 30.7419 44.102 30.7759 44.048 30.7992C43.994 30.8225 43.9358 30.8344 43.8769 30.8342H41.8451L41.8303 30.8283ZM59.2519 30.8283H46.0627C45.9562 30.8281 45.8535 30.7886 45.7747 30.7174C45.6959 30.6463 45.6465 30.5486 45.6362 30.4434L44.9965 23.3027C44.9916 23.2441 44.9989 23.1851 45.0181 23.1295C45.0373 23.0739 45.0679 23.0228 45.108 22.9794C45.148 22.9361 45.1967 22.9015 45.2509 22.8777C45.3051 22.8539 45.3637 22.8416 45.423 22.8414H46.4744C46.5306 22.8417 46.5862 22.8311 46.6381 22.8099C46.69 22.7888 46.7372 22.7577 46.7769 22.7183C46.8166 22.6789 46.848 22.6321 46.8693 22.5806C46.8906 22.5291 46.9013 22.4739 46.901 22.4182V21.7218C46.9017 21.6098 46.9469 21.5026 47.0267 21.4234C47.1065 21.3442 47.2146 21.2994 47.3275 21.2986H49.0276C49.1407 21.2986 49.2492 21.3432 49.3291 21.4226C49.4091 21.5019 49.4541 21.6095 49.4541 21.7218V22.4182C49.4541 22.5304 49.499 22.6381 49.579 22.7174C49.659 22.7968 49.7675 22.8414 49.8806 22.8414H52.1523C52.2654 22.8414 52.3739 22.7968 52.4539 22.7174C52.5339 22.6381 52.5788 22.5304 52.5788 22.4182V21.7982V21.7218C52.5788 21.6095 52.6238 21.5019 52.7037 21.4226C52.7837 21.3432 52.8922 21.2986 53.0053 21.2986H54.2049C54.3183 21.2986 54.4271 21.3431 54.5075 21.4224C54.588 21.5016 54.6336 21.6093 54.6343 21.7218V22.8414L59.6014 30.1701C59.6441 30.2335 59.6687 30.3071 59.6727 30.3832C59.6767 30.4593 59.6599 30.535 59.6241 30.6024C59.5883 30.6698 59.5348 30.7264 59.4693 30.7662C59.4038 30.806 59.3287 30.8274 59.2519 30.8283ZM46.433 19.4826C46.433 18.3277 47.5703 18.2631 48.0205 17.8194C48.0606 17.782 48.1136 17.7612 48.1686 17.7612C48.2237 17.7612 48.2766 17.782 48.3167 17.8194C48.7669 18.2748 49.9072 18.3806 49.9013 19.4797C49.896 19.7609 49.7911 20.0314 49.6051 20.2437C49.5657 20.2926 49.5157 20.332 49.4588 20.359C49.4018 20.386 49.3395 20.3998 49.2764 20.3994H47.0372C46.974 20.3993 46.9117 20.3856 46.8544 20.3592C46.7971 20.3329 46.7463 20.2944 46.7055 20.2466C46.5262 20.032 46.4296 19.7613 46.433 19.4826ZM52.1464 19.6736C52.1464 18.792 53.0142 18.7156 53.3815 18.3806C53.4209 18.3419 53.4741 18.3201 53.5296 18.3201C53.5851 18.3201 53.6383 18.3419 53.6777 18.3806C54.0509 18.7303 54.9187 18.8244 54.9157 19.6736C54.917 19.8869 54.8449 20.0942 54.7114 20.2613C54.672 20.31 54.6219 20.3491 54.5649 20.3756C54.5079 20.4021 54.4455 20.4153 54.3826 20.4141H52.6914C52.6285 20.415 52.5662 20.4018 52.5092 20.3753C52.4523 20.3488 52.4021 20.3098 52.3626 20.2613C52.2233 20.096 52.144 19.889 52.1375 19.6736H52.1464ZM12.8219 42.4591C13.0297 43.0247 13.3807 43.5277 13.8411 43.9198C14.3015 44.3119 14.8559 44.5799 15.4509 44.6979C16.0459 44.816 16.6615 44.7802 17.2385 44.594C17.8155 44.4077 18.3345 44.0773 18.7456 43.6345C18.7777 43.5985 18.8213 43.5744 18.869 43.5663C18.9168 43.5581 18.966 43.5663 19.0084 43.5896C19.0509 43.6129 19.084 43.6498 19.1025 43.6943C19.1209 43.7388 19.1235 43.7882 19.1099 43.8344C18.8314 44.8436 18.2562 45.7475 17.4576 46.431C16.6591 47.1145 15.6734 47.5464 14.6264 47.6718C13.5793 47.7971 12.5184 47.6101 11.5789 47.1347C10.6395 46.6592 9.86405 45.9169 9.35163 45.0024C8.83921 44.0878 8.61301 43.0426 8.70189 42C8.79076 40.9574 9.19069 39.9647 9.85065 39.1485C10.5106 38.3324 11.4007 37.7298 12.4073 37.4177C13.4139 37.1055 14.4914 37.098 15.5023 37.396C15.5485 37.4092 15.5889 37.4375 15.6168 37.4764C15.6447 37.5152 15.6586 37.5622 15.6562 37.6098C15.6538 37.6575 15.6352 37.7029 15.6036 37.7388C15.5719 37.7746 15.5289 37.7988 15.4816 37.8074C14.9799 37.9034 14.5051 38.1064 14.0901 38.4022C13.6751 38.6981 13.3299 39.0798 13.0781 39.521C12.8263 39.9621 12.6741 40.4523 12.6319 40.9575C12.5897 41.4628 12.6586 41.9711 12.8337 42.4474L12.8219 42.4591Z" fill="#141969" />
		<path d="M29.4642 42.9587C29.1254 42.9601 28.7996 43.0882 28.552 43.3176C28.3043 43.547 28.153 43.8606 28.1284 44.1959V54.7453C28.1288 54.7843 28.1424 54.8221 28.1672 54.8525C28.1919 54.8829 28.2263 54.9042 28.2647 54.9128C29.0463 55.1019 29.8474 55.2005 30.6519 55.2066H30.6845C30.7017 55.207 30.7189 55.204 30.7349 55.1976C30.7508 55.1912 30.7654 55.1817 30.7776 55.1696C30.7897 55.1576 30.7993 55.1431 30.8057 55.1273C30.8121 55.1114 30.8152 55.0944 30.8148 55.0773V44.2047C30.8148 44.1871 30.8148 44.1724 30.8148 44.1577C30.7822 43.8262 30.6252 43.519 30.3751 43.297C30.1249 43.0749 29.7998 42.9542 29.4642 42.9587Z" fill="#141969" />
		<path d="M50.1768 42.9587C49.8342 42.9594 49.5046 43.089 49.2545 43.3213C49.0044 43.5537 48.8524 43.8714 48.8291 44.2106V55.1038C48.8287 55.1185 48.8313 55.1331 48.8366 55.1468C48.8419 55.1604 48.8498 55.173 48.86 55.1836C48.8702 55.1943 48.8824 55.2028 48.8959 55.2088C48.9094 55.2147 48.924 55.218 48.9387 55.2184C49.6967 55.2121 50.4517 55.1224 51.1897 54.951C51.2856 54.9313 51.3717 54.8792 51.4332 54.8037C51.4948 54.7282 51.5281 54.6338 51.5274 54.5366V44.1871C51.4984 43.8516 51.3435 43.5392 51.0934 43.3117C50.8433 43.0842 50.5161 42.9583 50.1768 42.9587Z" fill="#141969" />
		<path d="M50.1708 39.5852C48.9625 39.585 47.801 40.0495 46.9306 40.8811C46.8794 40.9291 46.8169 40.9637 46.7488 40.9818C46.6807 40.9998 46.6091 41.0007 46.5406 40.9843C46.472 40.968 46.4087 40.9349 46.3563 40.8882C46.3039 40.8414 46.2641 40.7824 46.2405 40.7165C45.7646 39.4029 44.8915 38.2671 43.7407 37.4642C42.5898 36.6613 41.2172 36.2305 39.8103 36.2305C38.4034 36.2305 37.0308 36.6613 35.8799 37.4642C34.729 38.2671 33.856 39.4029 33.3801 40.7165C33.3565 40.7824 33.3167 40.8414 33.2643 40.8882C33.2119 40.9349 33.1485 40.968 33.08 40.9843C33.0115 41.0007 32.9399 40.9998 32.8718 40.9818C32.8037 40.9637 32.7412 40.9291 32.69 40.8811C32.0415 40.2629 31.2271 39.8432 30.3444 39.6722C29.4618 39.5012 28.5481 39.5862 27.7129 39.917C26.8776 40.2478 26.1561 40.8104 25.6347 41.5374C25.1133 42.2645 24.8141 43.1251 24.773 44.0165V53.8959C24.7724 53.9888 24.8029 54.0793 24.8597 54.1533C24.9165 54.2272 24.9964 54.2803 25.0869 54.3044L25.3831 54.3866C25.4468 54.4043 25.5137 54.4071 25.5786 54.3949C25.6435 54.3827 25.7048 54.3558 25.7575 54.3162C25.8102 54.2767 25.8531 54.2256 25.8826 54.167C25.9122 54.1084 25.9278 54.0437 25.9281 53.9782V44.0606C25.9743 43.169 26.361 42.3284 27.0096 41.7097C27.6583 41.0909 28.5201 40.7405 29.4198 40.7296C30.3195 40.7188 31.1897 41.0483 31.8532 41.6512C32.5168 42.2541 32.924 43.0852 32.9921 43.9753V44.5072V47.2842L32.9743 54.6629C32.9737 54.7275 32.9881 54.7914 33.0163 54.8497C33.0444 54.908 33.0857 54.9591 33.1369 54.9991C33.1881 55.0392 33.2478 55.067 33.3116 55.0805C33.3753 55.094 33.4413 55.0929 33.5045 55.0772L33.8007 54.9978C33.8915 54.9739 33.9718 54.9209 34.0291 54.847C34.0864 54.7732 34.1175 54.6826 34.1176 54.5894L34.1413 44.5454C34.1413 44.4426 34.1561 44.3309 34.1561 44.2251C34.1561 44.1193 34.1561 44.0312 34.1413 43.9313V42.9469C34.1413 41.4497 34.7408 40.0139 35.8078 38.9553C36.8748 37.8966 38.322 37.3019 39.831 37.3019C41.34 37.3019 42.7872 37.8966 43.8543 38.9553C44.9213 40.0139 45.5207 41.4497 45.5207 42.9469V43.9871C45.5207 44.0694 45.5207 44.1428 45.5207 44.2192C45.5207 44.2956 45.5207 44.375 45.5207 44.4514V54.5747C45.5208 54.6679 45.552 54.7585 45.6093 54.8323C45.6666 54.9062 45.7469 54.9592 45.8377 54.9832L46.1338 55.0625C46.1968 55.0792 46.2628 55.0813 46.3267 55.0686C46.3906 55.0559 46.4507 55.0287 46.5023 54.9892C46.5539 54.9497 46.5956 54.8989 46.6242 54.8407C46.6527 54.7826 46.6674 54.7187 46.667 54.654V47.2665V44.0165C46.7239 43.1227 47.1231 42.2843 47.7829 41.6732C48.4427 41.062 49.313 40.7242 50.2157 40.7291C51.1183 40.734 51.9849 41.0811 52.6379 41.6994C53.291 42.3177 53.681 43.1603 53.728 44.0547V53.9782C53.7283 54.0437 53.7439 54.1084 53.7735 54.167C53.8031 54.2256 53.8459 54.2767 53.8986 54.3162C53.9514 54.3558 54.0126 54.3827 54.0775 54.3949C54.1425 54.4071 54.2094 54.4043 54.273 54.3866L54.5692 54.3044C54.6592 54.2794 54.7385 54.2261 54.7952 54.1523C54.8518 54.0786 54.8827 53.9886 54.8832 53.8959V44.0165C54.8287 42.8163 54.3072 41.6838 53.4284 40.8573C52.5495 40.0308 51.3817 39.5748 50.1708 39.5852Z" fill="#141969" />
		<path d="M39.7986 39.5499C38.9073 39.55 38.0498 39.8881 37.4017 40.4951C36.7536 41.102 36.3639 41.9319 36.3125 42.8147V43.0057V53.8431C36.3133 53.8885 36.332 53.9319 36.3647 53.9638C36.3974 53.9956 36.4414 54.0135 36.4872 54.0135H36.5258C38.6749 53.4669 40.9282 53.4669 43.0774 54.0135H43.1159C43.1556 54.0129 43.1941 53.9995 43.2255 53.9753C43.2461 53.9593 43.2628 53.9388 43.2741 53.9153C43.2854 53.8919 43.2911 53.8661 43.2906 53.8401V43.0086V42.8176C43.2463 41.931 42.8581 41.0958 42.2072 40.4868C41.5563 39.8777 40.6933 39.542 39.7986 39.5499Z" fill="#141969" />
	</g>
	<defs>
		<clipPath id="clip0_1209:22237">
			<rect width="265" height="79" fill="white" />
		</clipPath>
	</defs>
</svg>
