<?xml version="1.0" encoding="utf-8"?>
<!-- Generator: Adobe Illustrator 22.1.0, SVG Export Plug-In . SVG Version: 6.00 Build 0)  -->
<svg version="1.1" id="Layer_1" xmlns="http://www.w3.org/2000/svg" xmlns:xlink="http://www.w3.org/1999/xlink" x="0px" y="0px"
	 viewBox="0 0 338.2 48.5" style="enable-background:new 0 0 338.2 48.5;" xml:space="preserve">
<style type="text/css">
	.st0{fill:#4B4B4B;}
	.st1{fill:#FF5000;}
	.st2{fill:#BEDCD2;}
</style>
<title>Artboard 1</title>
<path class="st0" d="M7.3,27.4l-0.9,0H4l-0.9,0l-0.8,2.7c-0.3,0.1-0.6,0.1-1,0.1c-0.3,0-0.7,0-1-0.2l-0.1-0.1l3.8-11.5
	c0.4-0.1,0.9-0.1,1.3-0.1c0.4,0,0.8,0,1.2,0.1l3.8,11.5c-0.3,0.2-0.7,0.3-1.1,0.3c-0.3,0-0.7-0.1-0.9-0.2C8,29.7,7.9,29.4,7.8,29
	L7.3,27.4z M3.7,25.7l0.8,0H6c0,0,0.1,0,0.3,0c0.2,0,0.3,0,0.4,0l-0.6-1.9c-0.3-1-0.6-2.1-0.9-3.2H5.2c-0.1,0.7-0.4,1.6-0.7,2.8
	L3.7,25.7z"/>
<path class="st0" d="M18.8,29.1c-0.1,0.2-0.2,0.4-0.3,0.6c-0.1,0.2-0.3,0.3-0.4,0.5c-0.6,0-1.2-0.4-1.5-1c-0.6,0.7-1.5,1.1-2.4,1.1
	c-0.7,0.1-1.5-0.2-2-0.8c-0.4-0.5-0.7-1.1-0.7-1.8c-0.1-0.8,0.3-1.6,0.9-2.2c0.7-0.5,1.5-0.8,2.4-0.7c0.5,0,1,0,1.5,0.1v-0.5
	c0-0.9-0.4-1.3-1.3-1.3c-0.9,0.1-1.8,0.3-2.6,0.6c-0.4-0.4-0.6-1-0.6-1.5c1.2-0.5,2.4-0.8,3.7-0.8c0.8,0,1.5,0.2,2.1,0.7
	c0.6,0.6,0.9,1.4,0.8,2.2v3.5C18.2,28.3,18.4,28.8,18.8,29.1z M14.5,28.7c0.7,0,1.3-0.3,1.7-0.8v-1.5c-0.4,0-0.9-0.1-1.3-0.1
	c-0.4,0-0.8,0.1-1.1,0.4c-0.2,0.2-0.4,0.6-0.4,0.9c0,0.3,0.1,0.6,0.3,0.8C14,28.6,14.2,28.7,14.5,28.7z"/>
<path class="st0" d="M20.2,29.4c0-0.3,0.1-0.5,0.2-0.8c0.1-0.3,0.2-0.5,0.4-0.7c0.7,0.4,1.5,0.7,2.4,0.7c0.3,0,0.7-0.1,1-0.2
	c0.2-0.1,0.4-0.4,0.3-0.6c0-0.4-0.3-0.8-1-1l-1-0.4c-1.4-0.5-2.1-1.4-2.1-2.5c0-0.7,0.3-1.4,0.9-1.9c0.7-0.5,1.5-0.8,2.3-0.7
	c1,0,2,0.2,2.9,0.7c0,0.3,0,0.6-0.2,0.8c-0.1,0.3-0.2,0.5-0.5,0.7c-0.7-0.4-1.5-0.6-2.3-0.6c-0.3,0-0.5,0.1-0.8,0.2
	c-0.2,0.1-0.3,0.4-0.3,0.6c0,0.4,0.3,0.7,0.9,0.9l1,0.4c1.5,0.5,2.2,1.4,2.2,2.6c0,0.8-0.3,1.5-0.9,1.9c-0.7,0.5-1.6,0.8-2.5,0.7
	C22.2,30.3,21.1,30,20.2,29.4z"/>
<path class="st0" d="M35.2,26.5h-4.8c0,0.6,0.2,1.1,0.5,1.6c0.3,0.4,0.9,0.6,1.4,0.6c0.8,0,1.5-0.2,2.2-0.6c0.3,0.4,0.6,0.8,0.6,1.3
	c-1,0.7-2.1,1-3.3,1c-1.1,0.1-2.1-0.4-2.7-1.2c-0.6-1-0.9-2.1-0.8-3.2c-0.1-1.1,0.3-2.3,0.9-3.2c0.6-0.8,1.6-1.3,2.6-1.2
	c1-0.1,1.9,0.3,2.6,1c0.6,0.7,1,1.6,0.9,2.6C35.3,25.5,35.3,26,35.2,26.5z M31.9,22.9c-0.9,0-1.4,0.7-1.5,2.1h3v-0.2
	c0-0.5-0.1-1-0.4-1.4C32.7,23.1,32.3,22.9,31.9,22.9z"/>
<path class="st0" d="M48.7,25.8c0.1,1.3-0.3,2.5-1.2,3.5c-1.5,1.3-3.7,1.3-5.1,0c-0.9-0.9-1.3-2.2-1.2-3.5c-0.1-1.3,0.3-2.5,1.2-3.5
	c1.5-1.3,3.7-1.3,5.1,0C48.3,23.3,48.8,24.6,48.7,25.8z M44.9,23c-1.1,0-1.6,1-1.6,2.9s0.5,2.9,1.6,2.9c1.1,0,1.6-1,1.6-2.9
	C46.5,23.9,46,23,44.9,23z"/>
<path class="st0" d="M50.9,29c-0.6-1-0.8-2.1-0.8-3.2c-0.1-1.2,0.3-2.3,1-3.2c0.5-0.7,1.4-1.2,2.3-1.2c0.8,0,1.7,0.3,2.3,0.9
	c0.3-0.4,0.8-0.7,1.3-0.7c0.2,0.1,0.3,0.3,0.5,0.5c0.1,0.2,0.2,0.4,0.3,0.6c-0.4,0.4-0.5,0.9-0.5,1.5v4.8c0.1,1.3-0.2,2.7-0.9,3.8
	c-0.7,0.8-1.8,1.2-2.9,1.1c-1,0-2.1-0.2-3-0.6c0-0.6,0.2-1.1,0.5-1.5c0.7,0.3,1.5,0.5,2.3,0.5c0.6,0.1,1.1-0.1,1.5-0.6
	c0.3-0.5,0.5-1,0.4-1.6v-0.7c-0.6,0.5-1.3,0.8-2.1,0.8C52.3,30.2,51.4,29.8,50.9,29z M55.3,27.7v-3.9c-0.4-0.4-0.9-0.7-1.5-0.7
	c-0.5,0-0.9,0.3-1.1,0.7c-0.3,0.7-0.4,1.4-0.4,2.1c0,0.7,0.1,1.4,0.4,2c0.2,0.4,0.5,0.6,1,0.6C54.3,28.5,54.9,28.2,55.3,27.7z"/>
<path class="st0" d="M66.5,27.3l0,1c0.5,0,0.9,0,1.2,0h4.2c0,0.3,0,0.5,0,0.8c-0.1,0.7-0.7,1.1-1.4,1c0,0,0,0,0,0h-4.8
	c-0.3,0-0.7-0.1-0.9-0.3c-0.2-0.3-0.4-0.6-0.3-1V18.6l0.1-0.1h7c0.1,0.3,0.1,0.6,0.1,0.8c0,0.3-0.1,0.7-0.2,1h-4.9l0,1.2v1.9
	c0.3,0,0.6,0,1.1,0h3c0.2,0.6,0.2,1.2,0,1.8h-3c-0.5,0-0.8,0-1.1,0V27.3z"/>
<path class="st0" d="M76.5,23.3v6.4c0,0.7,0,1.4-0.2,2.1c-0.1,0.4-0.3,0.7-0.5,1c-0.6,0.5-1.3,0.9-2,1c-0.4-0.3-0.6-0.8-0.6-1.3
	c0.4-0.2,0.7-0.4,1-0.8c0.2-0.4,0.3-0.9,0.3-1.3v-6.4c0-0.6-0.3-0.9-0.8-0.9h-0.4c-0.1-0.2-0.1-0.5-0.1-0.7c0-0.3,0-0.5,0.1-0.8
	c0.5,0,0.9-0.1,1.4-0.1H75c0.4,0,0.8,0.1,1.1,0.5C76.4,22.4,76.6,22.8,76.5,23.3z M74,20.1c-0.2-0.5-0.2-1.1,0-1.7
	c0.3-0.2,0.7-0.3,1.1-0.2c0.4,0,0.7,0.1,1,0.2c0.2,0.5,0.2,1.1,0,1.7c-0.3,0.2-0.7,0.3-1.1,0.2C74.7,20.4,74.3,20.3,74,20.1L74,20.1
	z"/>
<path class="st0" d="M86.1,24.4v3.8c0,0.6,0.1,1.1,0.3,1.6c-0.4,0.3-0.8,0.4-1.2,0.4c-0.3,0-0.7-0.1-0.9-0.3c-0.2-0.3-0.3-0.6-0.3-1
	v-4c0-0.4,0-0.8-0.2-1.1c-0.2-0.2-0.4-0.4-0.7-0.3c-0.7,0-1.3,0.3-1.8,0.8v5.8c-0.3,0.1-0.7,0.1-1,0.1c-0.4,0-0.7,0-1.1-0.1v-8.4
	l0.1-0.1H80c0.6,0,1.1,0.4,1.2,1c0,0,0,0,0,0c0.7-0.7,1.5-1,2.5-1.1c0.7-0.1,1.4,0.2,1.8,0.8C85.9,22.9,86.1,23.6,86.1,24.4z"/>
<path class="st0" d="M95.4,29.1c-0.1,0.2-0.2,0.4-0.3,0.6c-0.1,0.2-0.3,0.3-0.4,0.5c-0.6,0-1.2-0.4-1.5-1c-0.6,0.7-1.5,1.1-2.4,1.1
	c-0.7,0.1-1.5-0.2-2-0.8C88.2,29,88,28.4,88,27.8c-0.1-0.8,0.3-1.6,0.9-2.2c0.7-0.5,1.5-0.8,2.4-0.7c0.5,0,1,0,1.5,0.1v-0.5
	c0-0.9-0.4-1.3-1.3-1.3c-0.9,0.1-1.8,0.3-2.6,0.6c-0.4-0.4-0.6-1-0.6-1.5c1.2-0.5,2.4-0.8,3.7-0.8c0.8,0,1.5,0.2,2.1,0.7
	c0.6,0.6,0.9,1.4,0.8,2.2v3.5C94.8,28.3,95,28.8,95.4,29.1z M91.1,28.7c0.7,0,1.3-0.3,1.7-0.8v-1.5c-0.4,0-0.9-0.1-1.3-0.1
	c-0.4,0-0.8,0.1-1.1,0.4c-0.2,0.2-0.4,0.6-0.4,0.9c0,0.3,0.1,0.6,0.3,0.8C90.6,28.6,90.8,28.7,91.1,28.7z"/>
<path class="st0" d="M97.1,22.6c0.1-0.2,0.2-0.4,0.3-0.6c0.1-0.2,0.3-0.4,0.4-0.5c0.8,0.1,1.5,0.7,1.8,1.5c0.3-0.9,1.2-1.5,2.2-1.5
	c0.3,0,0.7,0,1,0.1c0,0.7-0.2,1.4-0.5,2c-0.3-0.1-0.5-0.1-0.8-0.1c-0.7,0-1.4,0.4-1.7,1.1v5.5c-0.3,0.1-0.7,0.1-1,0.1
	c-0.4,0-0.7,0-1.1-0.1v-5.7C97.8,23.7,97.5,23.1,97.1,22.6z"/>
<path class="st0" d="M117.2,21.3c0.3,1,0.4,1.9,0.4,2.9c0,1-0.1,2-0.4,2.9c-0.3,0.8-0.8,1.6-1.5,2.1c-0.4,0.3-0.9,0.5-1.4,0.6
	c-0.6,0.1-1.2,0.2-1.7,0.2c-0.6,0-1.9,0-3.8-0.1l-0.1-0.1V18.5l0.1-0.1c1.3,0,2.6-0.1,3.9-0.1c0.6,0,1.1,0.1,1.6,0.2
	c0.5,0.1,1,0.3,1.4,0.6C116.4,19.8,117,20.5,117.2,21.3z M114.9,27c0.2-0.4,0.3-0.9,0.4-1.3c0.1-1,0.1-2,0-3
	c-0.1-0.4-0.2-0.9-0.4-1.3c-0.2-0.4-0.4-0.8-0.8-1c-0.5-0.3-1-0.4-1.6-0.4c-0.7,0-1.2,0-1.7,0v8.4h1.9c0.5,0,1-0.1,1.4-0.4
	C114.5,27.8,114.8,27.5,114.9,27z"/>
<path class="st0" d="M126.5,29.1c-0.1,0.2-0.2,0.4-0.3,0.6c-0.1,0.2-0.3,0.3-0.4,0.5c-0.6,0-1.2-0.4-1.5-1c-0.6,0.7-1.5,1.1-2.4,1.1
	c-0.7,0.1-1.5-0.2-2-0.8c-0.4-0.5-0.7-1.1-0.7-1.8c-0.1-0.8,0.3-1.6,0.9-2.2c0.7-0.5,1.5-0.8,2.4-0.7c0.5,0,1,0,1.5,0.1v-0.5
	c0-0.9-0.4-1.3-1.3-1.3c-0.9,0.1-1.8,0.3-2.6,0.6c-0.4-0.4-0.6-1-0.6-1.5c1.2-0.5,2.4-0.8,3.7-0.8c0.8,0,1.5,0.2,2.1,0.7
	c0.6,0.6,0.9,1.4,0.8,2.2v3.5C126,28.3,126.2,28.8,126.5,29.1z M122.3,28.7c0.7,0,1.3-0.3,1.7-0.8v-1.5c-0.4,0-0.9-0.1-1.3-0.1
	c-0.4,0-0.8,0.1-1.1,0.4c-0.2,0.2-0.4,0.6-0.4,0.9c0,0.3,0.1,0.6,0.3,0.8C121.7,28.6,122,28.7,122.3,28.7z"/>
<path class="st0" d="M135.7,24.4v3.8c0,0.6,0.1,1.1,0.3,1.6c-0.4,0.3-0.8,0.4-1.2,0.4c-0.3,0-0.7-0.1-0.9-0.3
	c-0.2-0.3-0.3-0.6-0.3-1v-4c0-0.4,0-0.8-0.2-1.1c-0.2-0.2-0.4-0.4-0.7-0.3c-0.7,0-1.3,0.3-1.8,0.8v5.8c-0.3,0.1-0.7,0.1-1,0.1
	c-0.4,0-0.7,0-1.1-0.1v-8.4l0.1-0.1h0.8c0.6,0,1.1,0.4,1.2,1c0,0,0,0,0,0c0.7-0.7,1.5-1,2.5-1.1c0.7-0.1,1.4,0.2,1.8,0.8
	C135.5,22.9,135.7,23.6,135.7,24.4z"/>
<path class="st0" d="M140.8,23.3v6.8c-0.3,0.1-0.7,0.1-1,0.1c-0.4,0-0.7,0-1.1-0.1v-6c0-0.6-0.3-0.9-0.8-0.9h-0.2
	c-0.1-0.2-0.1-0.5-0.1-0.7c0-0.3,0-0.5,0.1-0.8c0.4,0,0.8-0.1,1.2-0.1h0.3c0.4,0,0.9,0.1,1.1,0.5C140.6,22.4,140.8,22.8,140.8,23.3z
	 M138.3,20.1c-0.2-0.5-0.2-1.1,0-1.7c0.3-0.2,0.7-0.3,1.1-0.2c0.4,0,0.7,0.1,1,0.2c0.2,0.5,0.2,1.1,0,1.7c-0.3,0.2-0.7,0.3-1.1,0.2
	C139,20.4,138.6,20.3,138.3,20.1z"/>
<path class="st0" d="M150,26.5h-4.8c0,0.6,0.2,1.1,0.5,1.6c0.3,0.4,0.9,0.6,1.4,0.6c0.8,0,1.5-0.2,2.2-0.6c0.3,0.4,0.6,0.8,0.6,1.3
	c-1,0.7-2.1,1-3.3,1c-1.1,0.1-2.1-0.4-2.7-1.2c-0.6-1-0.9-2.1-0.8-3.2c-0.1-1.1,0.3-2.3,0.9-3.2c0.6-0.8,1.6-1.3,2.6-1.2
	c1-0.1,1.9,0.3,2.6,1c0.6,0.7,1,1.6,0.9,2.6C150.1,25.5,150.1,26,150,26.5z M146.7,22.9c-0.9,0-1.4,0.7-1.5,2.1h3v-0.2
	c0-0.5-0.1-1-0.4-1.4C147.5,23.1,147.1,22.9,146.7,22.9z"/>
<path class="st0" d="M155.1,28.5h0.6c0.1,0.3,0.2,0.6,0.2,0.9c0,0.2,0,0.4-0.1,0.6c-0.5,0.1-1.1,0.1-1.6,0.2c-1.2,0-1.8-0.7-1.8-2
	V17.7l0.1-0.1h0.8c0.3,0,0.6,0.1,0.9,0.3c0.2,0.3,0.3,0.7,0.3,1v8.9C154.4,28.2,154.6,28.5,155.1,28.5z"/>
<path class="st0" d="M157.1,29.4c0-0.3,0.1-0.5,0.2-0.8c0.1-0.3,0.2-0.5,0.4-0.7c0.7,0.4,1.5,0.7,2.4,0.7c0.3,0,0.7-0.1,1-0.2
	c0.2-0.1,0.4-0.4,0.3-0.6c0-0.4-0.3-0.8-1-1l-1-0.4c-1.4-0.5-2.1-1.4-2.1-2.5c0-0.7,0.3-1.4,0.9-1.9c0.7-0.5,1.5-0.8,2.3-0.7
	c1,0,2,0.2,2.9,0.7c0,0.3,0,0.6-0.2,0.8c-0.1,0.3-0.2,0.5-0.5,0.7c-0.7-0.4-1.5-0.6-2.3-0.6c-0.3,0-0.5,0.1-0.8,0.2
	c-0.2,0.1-0.3,0.4-0.3,0.6c0,0.4,0.3,0.7,0.9,0.9l1,0.4c1.5,0.5,2.2,1.4,2.2,2.6c0,0.8-0.3,1.5-0.9,1.9c-0.7,0.5-1.6,0.8-2.5,0.7
	C159.1,30.3,158,30,157.1,29.4z"/>
<path class="st0" d="M172.1,26.5h-4.8c0,0.6,0.2,1.1,0.5,1.6c0.3,0.4,0.9,0.6,1.4,0.6c0.8,0,1.5-0.2,2.2-0.6
	c0.3,0.4,0.6,0.8,0.6,1.3c-1,0.7-2.1,1-3.3,1c-1.1,0.1-2.1-0.4-2.7-1.2c-0.6-1-0.9-2.1-0.8-3.2c-0.1-1.1,0.3-2.3,0.9-3.2
	c0.6-0.8,1.6-1.3,2.6-1.2c1-0.1,1.9,0.3,2.6,1c0.6,0.7,1,1.6,0.9,2.6C172.2,25.5,172.2,26,172.1,26.5z M168.8,22.9
	c-0.9,0-1.4,0.7-1.5,2.1h3v-0.2c0-0.5-0.1-1-0.4-1.4C169.6,23.1,169.2,22.9,168.8,22.9z"/>
<path class="st0" d="M181.4,24.4v3.8c0,0.6,0.1,1.1,0.3,1.6c-0.4,0.3-0.8,0.4-1.2,0.4c-0.3,0-0.7-0.1-0.9-0.3
	c-0.2-0.3-0.3-0.6-0.3-1v-4c0-0.4,0-0.8-0.2-1.1c-0.2-0.2-0.4-0.4-0.7-0.3c-0.7,0-1.3,0.3-1.8,0.8v5.8c-0.3,0.1-0.7,0.1-1,0.1
	c-0.4,0-0.7,0-1.1-0.1v-8.4l0.1-0.1h0.8c0.6,0,1.1,0.4,1.2,1c0,0,0,0,0,0c0.7-0.7,1.5-1,2.5-1.1c0.7-0.1,1.4,0.2,1.8,0.8
	C181.3,22.9,181.5,23.6,181.4,24.4z"/>
<path class="st0" d="M183.4,29.4c0-0.3,0.1-0.5,0.2-0.8c0.1-0.3,0.3-0.5,0.4-0.7c0.7,0.4,1.5,0.7,2.4,0.7c0.3,0,0.7-0.1,1-0.2
	c0.2-0.1,0.4-0.4,0.3-0.6c0-0.4-0.3-0.8-1-1l-1-0.4c-1.4-0.5-2.1-1.4-2.1-2.5c0-0.7,0.3-1.4,0.9-1.9c0.7-0.5,1.5-0.8,2.3-0.7
	c1,0,2,0.2,2.9,0.7c0,0.3,0,0.6-0.2,0.8c-0.1,0.3-0.2,0.5-0.5,0.7c-0.7-0.4-1.5-0.6-2.3-0.6c-0.3,0-0.5,0.1-0.8,0.2
	c-0.2,0.1-0.3,0.4-0.3,0.6c0,0.4,0.3,0.7,0.9,0.9l1,0.4c1.5,0.5,2.2,1.4,2.2,2.6c0,0.8-0.3,1.5-0.9,1.9c-0.7,0.5-1.6,0.8-2.5,0.7
	C185.4,30.3,184.3,30,183.4,29.4z"/>
<path class="st0" d="M198.4,20.3l0,1.7v1.3h3.9c0.1,0.6,0.1,1.2,0,1.8h-3.9v4.9c-0.7,0.1-1.4,0.1-2.2,0V18.5l0.1-0.1h6.9
	c0.1,0.3,0.1,0.6,0.1,0.8c0,0.7-0.4,1-1.2,1h-2.3C199.2,20.3,198.7,20.3,198.4,20.3z"/>
<path class="st0" d="M211.6,25.8c0.1,1.3-0.3,2.5-1.2,3.5c-1.5,1.3-3.7,1.3-5.1,0c-0.9-0.9-1.3-2.2-1.2-3.5
	c-0.1-1.3,0.3-2.5,1.2-3.5c1.5-1.3,3.7-1.3,5.1,0C211.3,23.3,211.7,24.6,211.6,25.8z M207.9,23c-1.1,0-1.6,1-1.6,2.9
	c0,1.9,0.5,2.9,1.6,2.9c1.1,0,1.6-1,1.6-2.9C209.5,23.9,208.9,23,207.9,23z"/>
<path class="st0" d="M220.5,24.4v3.8c0,0.6,0.1,1.1,0.3,1.6c-0.4,0.3-0.8,0.4-1.2,0.4c-0.3,0-0.7-0.1-0.9-0.3
	c-0.2-0.3-0.3-0.6-0.3-1v-4c0-0.4,0-0.8-0.2-1.1c-0.2-0.2-0.4-0.4-0.7-0.3c-0.7,0-1.3,0.3-1.8,0.8v5.8c-0.3,0.1-0.7,0.1-1,0.1
	c-0.4,0-0.7,0-1.1-0.1v-8.4l0.1-0.1h0.8c0.6,0,1.1,0.4,1.2,1c0,0,0,0,0,0c0.7-0.7,1.5-1,2.5-1.1c0.7-0.1,1.4,0.2,1.8,0.8
	C220.4,22.9,220.6,23.6,220.5,24.4z"/>
<path class="st0" d="M225.3,30.3c-0.9,0-1.7-0.4-2.2-1.2c-0.6-1-0.8-2.1-0.8-3.2c-0.1-1.2,0.3-2.3,1-3.2c0.6-0.7,1.4-1.2,2.4-1.2
	c0.6,0,1.2,0.2,1.8,0.5v-4.3l0.1-0.1h0.8c0.3,0,0.6,0.1,0.9,0.3c0.2,0.3,0.3,0.7,0.3,1v8.8c-0.1,0.5,0.1,1.1,0.5,1.5
	c-0.1,0.2-0.2,0.4-0.3,0.6c-0.1,0.2-0.3,0.3-0.4,0.5c-0.6-0.1-1.2-0.4-1.5-1C227.1,29.9,226.2,30.3,225.3,30.3z M225.8,28.6
	c0.7,0,1.3-0.4,1.6-0.9v-4c-0.4-0.3-1-0.5-1.5-0.5c-0.5,0-0.9,0.3-1,0.7c-0.3,0.7-0.4,1.4-0.4,2.1c0,0.7,0.1,1.4,0.4,2
	C225,28.3,225.4,28.5,225.8,28.6L225.8,28.6z"/>
<rect x="291" y="1" class="st1" width="46.7" height="46.7"/>
<path class="st2" d="M321.2,24.4c0,3.8-3.1,6.9-6.9,6.9c-3.8,0-6.9-3.1-6.9-6.9c0-3.8,3.1-6.9,6.9-6.9
	C318.1,17.5,321.2,20.6,321.2,24.4C321.2,24.4,321.2,24.4,321.2,24.4"/>
<path class="st2" d="M273.5,24.4c0,3.8-3.1,6.9-6.9,6.8c-3.8,0-6.9-3.1-6.8-6.9c0-3.8,3.1-6.8,6.9-6.8
	C270.4,17.5,273.5,20.6,273.5,24.4C273.5,24.4,273.5,24.4,273.5,24.4"/>
</svg>
