<?xml version="1.0" encoding="utf-8"?>
<!-- Generator: Adobe Illustrator 27.0.1, SVG Export Plug-In . SVG Version: 6.00 Build 0)  -->
<svg version="1.1" id="Lag_1" xmlns="http://www.w3.org/2000/svg" xmlns:xlink="http://www.w3.org/1999/xlink" x="0px" y="0px"
	 width="587.5px" height="337.3px" viewBox="0 0 587.5 337.3" enable-background="new 0 0 587.5 337.3" xml:space="preserve">
<g>
	<g>
		<path fill="#797777" d="M45.4,318.7h-4.9l-18.4-52.9h3.9l17.1,50.6l17.5-50.6h3.5L45.4,318.7z"/>
		<path fill="#797777" d="M75,269.9c-1.4,0-2.5-1.1-2.5-2.5c0-1.4,1.1-2.4,2.5-2.4c1.4,0,2.4,1,2.4,2.4
			C77.4,268.8,76.3,269.9,75,269.9z M73.3,318.7v-37.9h3.3v37.9H73.3z"/>
		<path fill="#797777" d="M115.1,318.7v-3.2c-0.2,0.2-4.8,3.9-11.3,3.9c-9.7,0-16.4-7.5-16.4-19c0-12.1,7.4-20.5,18.1-20.5
			c5.2,0,8.9,2.3,9.5,2.6v-21h3.3v57.1H115.1z M115.1,285.8c-0.6-0.3-4-2.9-9.4-2.9c-9,0-14.8,7.1-14.8,17.7
			c0,9.2,5.2,15.8,13.3,15.8c6.6,0,10.3-3.6,11-4V285.8z"/>
		<path fill="#797777" d="M160.4,300h-27.8c0,9.8,5.1,16.2,14,16.2c6.6,0,11.3-3.3,11.3-3.3l1.6,2.7c-0.4,0.4-5.7,3.8-13.1,3.8
			c-10.7,0-17.1-7.8-17.1-19.4c0-12.4,6.6-20.1,17-20.1c8.1,0,14.4,6.3,14.4,17.6C160.5,298.2,160.4,299.1,160.4,300z M146.1,282.8
			c-6.9,0-12.9,5.3-13.4,14.1h24.4C157.2,290.2,153.8,282.8,146.1,282.8z"/>
		<path fill="#797777" d="M196.1,318.7V296c0-5,0-8.4-2.4-10.8c-1.6-1.6-4-2.2-6.7-2.2c-5.7,0-11.3,3.6-12.4,4.2v31.5h-3.3v-37.9
			h3.3v3.3c0.6-0.5,6.1-4.1,12.7-4.1c4.4,0,7.1,1.3,8.8,3c2.9,2.9,3.3,5.8,3.3,11.5v24.2H196.1z"/>
		<path fill="#797777" d="M243.6,319.5c-3.5,0-5.6-0.9-7.2-2.5c-2.3-2.3-2-6.4-2-10.2v-23.3h-6.6v-2.8h6.6v-10.8h3.3v10.8h12.5v2.8
			h-12.5v23.1c0,5.6-0.3,9.8,6.3,9.8c2.9,0,4.9-1,5.6-1.2l1,2.6C249.8,318.2,247.8,319.5,243.6,319.5z"/>
		<path fill="#797777" d="M262.7,269.9c-1.3,0-2.5-1.1-2.5-2.5c0-1.4,1.1-2.4,2.5-2.4c1.4,0,2.4,1,2.4,2.4
			C265.1,268.8,264,269.9,262.7,269.9z M261,318.7v-37.9h3.3v37.9H261z"/>
		<path fill="#797777" d="M277.4,318.7v-57.1h3.3v57.1H277.4z"/>
		<path fill="#797777" d="M338.8,332.6c-3.3,3.3-7.2,4-11.8,4c-8.1,0-12.9-4-13.3-4.4l1.7-2.5c0.6,0.3,5.1,3.8,11.6,3.8
			c5.1,0,7.7-1.4,9.6-3.3c2.3-2.3,2.4-5.1,2.4-12v-3.4c-0.6,0.4-5.2,3.9-11.6,3.9c-9.2,0-16-7.3-16-18.7c0-11.7,7.8-20.2,18.4-20.2
			c7.1,0,11.7,2.7,12.5,3.1v36.4C342.2,326.7,341.4,330,338.8,332.6z M338.9,285c-0.6-0.2-3.9-2-9.4-2c-9,0-14.8,7.1-14.8,17.1
			c0,9.1,4.9,15.6,12.8,15.6c6.1,0,10.8-3.7,11.4-4V285z"/>
		<path fill="#797777" d="M376.9,318.7v-2.9c-1,0.6-5.6,3.7-12.2,3.7c-7.2,0-12.1-4.4-12.1-11.1c0-12.1,15.2-12.3,22.1-12.3h2.3V294
			c0-2.8,0.3-6.1-2-8.4c-1.3-1.3-3.3-2.7-7.9-2.7c-6,0-10.3,3-10.5,3.2l-1.7-2.4c0.2-0.3,5.1-3.8,12.6-3.8c5.2,0,7.9,1.7,9.7,3.5
			c2.3,2.3,3,4.8,3,10.6v24.8H376.9z M376.9,299h-2.8c-10.3,0-18.2,1.9-18.2,9.5c0,3.9,2.5,8,9.5,8c6,0,11.1-3.3,11.4-3.5V299z"/>
		<path fill="#797777" d="M407.5,318.7h-4.2l-14.9-37.9h3.7l13.4,34.7l13.4-34.7h3.6L407.5,318.7z"/>
		<path fill="#797777" d="M456.8,318.7V296c0-5,0-8.4-2.4-10.8c-1.6-1.6-4-2.2-6.7-2.2c-5.7,0-11.4,3.6-12.4,4.2v31.5h-3.3v-37.9
			h3.3v3.3c0.6-0.5,6.1-4.1,12.7-4.1c4.4,0,7.1,1.3,8.8,3c2.9,2.9,3.3,5.8,3.3,11.5v24.2H456.8z"/>
	</g>
	<g>
		<path fill="#797777" d="M83.2,113.6c2.9,0,5.3-2.4,5.3-5.3c0-2.9-2.4-5.3-5.3-5.3c-2.9,0-5.3,2.4-5.3,5.3
			C77.9,111.3,80.2,113.6,83.2,113.6"/>
		<path fill="#797777" d="M125.5,90.9c2.7,0,5-2.2,5-5c0-2.8-2.2-5-5-5c-2.8,0-5,2.2-5,5C120.5,88.6,122.7,90.9,125.5,90.9"/>
		<path fill="#797777" d="M76.9,96.6c-3.2,0-5.7-2.6-5.7-5.8c0-3.2,2.6-5.8,5.7-5.8c3.2,0,5.7,2.6,5.7,5.8
			C82.7,94,80.1,96.6,76.9,96.6"/>
		<path fill="#797777" d="M96.9,114.7c2.8,0,5-2.2,5-5c0-2.8-2.2-5-5-5c-2.8,0-5,2.2-5,5C91.9,112.4,94.2,114.7,96.9,114.7"/>
		<path fill="#797777" d="M110.5,117.1c2.7,0,5-2.2,5-5c0-2.8-2.2-5-5-5c-2.8,0-5,2.2-5,5C105.6,114.9,107.8,117.1,110.5,117.1"/>
		<path fill="#797777" d="M105.6,99.9c2.9,0,5.3-2.4,5.3-5.3c0-2.9-2.4-5.3-5.3-5.3c-2.9,0-5.3,2.4-5.3,5.3
			C100.3,97.6,102.6,99.9,105.6,99.9"/>
		<path fill="#797777" d="M92,97.4c2.9,0,5.3-2.4,5.3-5.3c0-2.9-2.4-5.3-5.3-5.3c-2.9,0-5.3,2.4-5.3,5.3
			C86.7,95.1,89.1,97.4,92,97.4"/>
		<path fill="#797777" d="M100.6,83.2c3.3,0,6-2.7,6-6c0-3.3-2.7-6-6-6c-3.3,0-6,2.7-6,6C94.6,80.5,97.3,83.2,100.6,83.2"/>
		<path fill="#797777" d="M111.8,57.2c2.7,0,5-2.2,5-5c0-2.8-2.2-5-5-5c-2.8,0-5,2.2-5,5C106.8,54.9,109,57.2,111.8,57.2"/>
		<path fill="#797777" d="M108,69.6c2.8,0,5-2.2,5-5c0-2.8-2.2-5-5-5c-2.7,0-5,2.2-5,5C103.1,67.4,105.3,69.6,108,69.6"/>
		<path fill="#797777" d="M100.6,48.4c2.7,0,5-2.2,5-5c0-2.8-2.2-5-5-5c-2.8,0-5,2.2-5,5C95.6,46.2,97.8,48.4,100.6,48.4"/>
		<path fill="#797777" d="M124.2,53.4c2.7,0,5-2.2,5-5c0-2.8-2.2-5-5-5c-2.8,0-5,2.2-5,5C119.2,51.2,121.5,53.4,124.2,53.4"/>
		<path fill="#797777" d="M131.7,64.7c2.8,0,5-2.2,5-5c0-2.8-2.2-5-5-5c-2.7,0-5,2.2-5,5C126.7,62.4,129,64.7,131.7,64.7"/>
		<path fill="#797777" d="M131.7,78.4c2.8,0,5-2.2,5-5c0-2.8-2.2-5-5-5c-2.8,0-5,2.2-5,5C126.7,76.2,128.9,78.4,131.7,78.4"/>
		<path fill="#797777" d="M85.2,49.7c2.8,0,5-2.2,5-5c0-2.8-2.2-5-5-5c-2.8,0-5,2.2-5,5C80.3,47.4,82.5,49.7,85.2,49.7"/>
		<path fill="#797777" d="M119.2,103.4c2.8,0,5-2.2,5-5c0-2.8-2.2-5-5-5c-2.7,0-5,2.2-5,5C114.3,101.1,116.5,103.4,119.2,103.4"/>
		<path fill="#797777" d="M55.4,113.6c-2.9,0-5.3-2.4-5.3-5.3c0-2.9,2.4-5.3,5.3-5.3c2.9,0,5.3,2.4,5.3,5.3
			C60.7,111.3,58.3,113.6,55.4,113.6"/>
		<path fill="#797777" d="M13.1,90.9c-2.7,0-5-2.2-5-5c0-2.8,2.2-5,5-5c2.8,0,5,2.2,5,5C18.1,88.6,15.8,90.9,13.1,90.9"/>
		<path fill="#797777" d="M69.3,112.4c2.9,0,5.3-2.4,5.3-5.3c0-2.9-2.4-5.3-5.3-5.3c-2.9,0-5.3,2.4-5.3,5.3
			C64,110,66.4,112.4,69.3,112.4"/>
		<path fill="#797777" d="M61.6,96.6c3.2,0,5.7-2.6,5.7-5.8c0-3.2-2.6-5.8-5.7-5.8c-3.2,0-5.7,2.6-5.7,5.8
			C55.9,94,58.4,96.6,61.6,96.6"/>
		<path fill="#797777" d="M69.3,36.7c3.9,0,7-3.2,7-7c0-3.9-3.1-7-7-7c-3.9,0-7,3.2-7,7C62.3,33.6,65.4,36.7,69.3,36.7"/>
		<path fill="#797777" d="M69.3,49.7c2.7,0,5-2.2,5-5c0-2.8-2.2-5-5-5c-2.8,0-5,2.2-5,5C64.3,47.4,66.5,49.7,69.3,49.7"/>
		<path fill="#797777" d="M69.3,12.2c2.7,0,5-2.2,5-5c0-2.8-2.2-5-5-5c-2.8,0-5,2.2-5,5C64.3,10,66.5,12.2,69.3,12.2"/>
		<path fill="#797777" d="M69.3,81.7c-3.9,0-7-3.1-7-7c0-3.9,3.1-7,7-7c3.9,0,7,3.1,7,7C76.3,78.5,73.1,81.7,69.3,81.7"/>
		<path fill="#797777" d="M41.6,114.7c-2.8,0-5-2.2-5-5c0-2.8,2.2-5,5-5c2.8,0,5,2.2,5,5C46.6,112.4,44.4,114.7,41.6,114.7"/>
		<path fill="#797777" d="M28,117.1c-2.7,0-5-2.2-5-5c0-2.8,2.2-5,5-5c2.8,0,5,2.2,5,5C33,114.9,30.8,117.1,28,117.1"/>
		<path fill="#797777" d="M69.3,64.4c3.3,0,6-2.7,6-6c0-3.3-2.7-6-6-6c-3.3,0-6,2.7-6,6C63.3,61.7,65.9,64.4,69.3,64.4"/>
		<path fill="#797777" d="M33,99.9c-2.9,0-5.3-2.4-5.3-5.3c0-2.9,2.4-5.3,5.3-5.3c2.9,0,5.3,2.4,5.3,5.3
			C38.3,97.6,35.9,99.9,33,99.9"/>
		<path fill="#797777" d="M46.5,97.4c-2.9,0-5.3-2.4-5.3-5.3c0-2.9,2.4-5.3,5.3-5.3c2.9,0,5.3,2.4,5.3,5.3
			C51.8,95.1,49.4,97.4,46.5,97.4"/>
		<path fill="#797777" d="M38,83.2c-3.3,0-6-2.7-6-6c0-3.3,2.7-6,6-6c3.3,0,6,2.7,6,6C44,80.5,41.3,83.2,38,83.2"/>
		<path fill="#797777" d="M26.8,57.2c-2.7,0-5-2.2-5-5c0-2.8,2.2-5,5-5c2.7,0,5,2.2,5,5C31.7,54.9,29.5,57.2,26.8,57.2"/>
		<path fill="#797777" d="M30.5,69.6c-2.7,0-5-2.2-5-5c0-2.8,2.2-5,5-5c2.7,0,5,2.2,5,5C35.5,67.4,33.2,69.6,30.5,69.6"/>
		<path fill="#797777" d="M38,48.4c-2.8,0-5-2.2-5-5c0-2.8,2.2-5,5-5c2.7,0,5,2.2,5,5C42.9,46.2,40.7,48.4,38,48.4"/>
		<path fill="#797777" d="M14.3,53.4c-2.7,0-5-2.2-5-5c0-2.8,2.2-5,5-5c2.8,0,5,2.2,5,5C19.3,51.2,17.1,53.4,14.3,53.4"/>
		<path fill="#797777" d="M6.8,64.7c-2.7,0-5-2.2-5-5c0-2.8,2.2-5,5-5c2.8,0,5,2.2,5,5C11.8,62.4,9.6,64.7,6.8,64.7"/>
		<path fill="#797777" d="M6.8,78.4c-2.7,0-5-2.2-5-5c0-2.8,2.2-5,5-5c2.8,0,5,2.2,5,5C11.8,76.2,9.6,78.4,6.8,78.4"/>
		<path fill="#797777" d="M53.2,49.7c-2.8,0-5-2.2-5-5c0-2.8,2.2-5,5-5c2.8,0,5,2.2,5,5C58.2,47.4,56,49.7,53.2,49.7"/>
		<path fill="#797777" d="M19.3,103.4c-2.7,0-5-2.2-5-5c0-2.8,2.2-5,5-5c2.8,0,5,2.2,5,5C24.3,101.1,22.1,103.4,19.3,103.4"/>
		<path fill="#797777" d="M61.6,22.2c-2.8,0-5-2.2-5-5c0-2.8,2.2-5,5-5c2.7,0,5,2.2,5,5C66.6,19.9,64.4,22.2,61.6,22.2"/>
		<path fill="#797777" d="M76.9,22.2c2.7,0,5-2.2,5-5c0-2.8-2.2-5-5-5c-2.8,0-5,2.2-5,5C72,19.9,74.2,22.2,76.9,22.2"/>
	</g>
	<g>
		<path fill="#AF292E" d="M220.5,116.6c-12.8,0-19.7-6.2-20.3-7l5.6-8.7c1.3,0.8,6.9,4.9,14,4.9c5.9,0,9.7-2.9,9.7-7.3
			c0-1.8-0.8-3.3-1.7-4.2c-3.8-3.8-14.6-5.2-20.9-11.6c-2.4-2.4-4.8-6-4.8-11.4c0-10.9,8.8-17.9,20.9-17.9c11.9,0,18.4,6.1,19,6.6
			l-5.8,8.2c-0.8-0.6-6.3-4.5-12.4-4.5c-5.3,0-9.1,2.5-9.1,6.3c0,1.8,0.5,2.6,1.5,3.6c2.9,2.9,15.3,5.6,21.5,11.8
			c2.9,2.9,4.7,6.2,4.7,11.8C242.4,108.7,233.7,116.6,220.5,116.6z"/>
		<path fill="#AF292E" d="M270.8,116.4c-13.1,0-22.2-9.6-22.2-23.2c0-13.8,9.5-23.8,23.1-23.8c13.1,0,22.2,9.7,22.2,23.1
			C294,106.6,284.6,116.4,270.8,116.4z M271.2,79.4c-6.2,0-10.3,5.3-10.3,13.3c0,8.1,4.4,13.6,10.8,13.6c6.3,0,10.1-5.2,10.1-13.3
			C281.8,84.8,277.4,79.4,271.2,79.4z"/>
		<path fill="#AF292E" d="M322.5,116.4c-13.9,0-22.8-9.9-22.8-23.2c0-13.8,10.2-23.9,23.6-23.9c9.4,0,14.7,4.5,15.4,5.4l-4.9,7.5
			c-0.6-0.4-4.3-3.1-9.4-3.1c-8.1,0-12.5,7.1-12.5,13.4c0,7.8,4,13.7,12.1,13.7c5.7,0,10.3-3.1,10.7-3.3l4.7,7.8
			C339.2,111,333,116.4,322.5,116.4z"/>
		<path fill="#AF292E" d="M353.4,65.1c-3.9,0-7-3.1-7-7c0-3.9,3.1-7,7-7c3.9,0,7,3.1,7,7C360.3,62,357.3,65.1,353.4,65.1z
			 M347.3,115.1V70.6h12.2v44.5H347.3z"/>
		<path fill="#AF292E" d="M395.9,115.1V112c-0.8,0.5-5.5,4.2-12.6,4.2c-8.9,0-14.4-5.9-14.4-14.3c0-15.8,19.4-16.1,24.8-16.1h1.3
			c0-2.7-0.1-4-1.4-5.2c-1-1-3-1.8-6.3-1.8c-5.9,0-11.2,2.9-11.8,3.3l-4.1-7.8c0.6-0.5,6.7-4.8,16.9-4.8c3.8,0,10.2,0.6,14.6,5
			c3.7,3.7,3.6,8.3,3.6,14.1v26.7H395.9z M395,94c-0.8,0-1.9,0-1.9,0c-7.9,0-13.5,1.4-13.5,7c0,4.6,3.9,5.9,6.9,5.9
			c5,0,8-2.4,8.5-2.7V94z"/>
		<path fill="#AF292E" d="M416.7,115.1V49.6h12.2v65.5H416.7z"/>
		<path fill="#AF292E" d="M439.3,96.4V86.3h23.8v10.1H439.3z"/>
		<path fill="#AF292E" d="M515.2,116.4c-13.1,0-22.2-9.6-22.2-23.2c0-13.8,9.5-23.8,23.1-23.8c13.1,0,22.2,9.7,22.2,23.1
			C538.4,106.6,529,116.4,515.2,116.4z M515.6,79.4c-6.2,0-10.3,5.3-10.3,13.3c0,8.1,4.4,13.6,10.8,13.6c6.3,0,10.1-5.2,10.1-13.3
			C526.2,84.8,521.8,79.4,515.6,79.4z"/>
		<path fill="#AF292E" d="M580.6,130.3c-2.7,2.7-7.6,5.9-16.5,5.9c-12.5,0-19.3-5.9-20-6.6l4.9-8c0.6,0.4,6.4,4.4,13.7,4.4
			c9.9,0,10.6-6.2,10.6-10.9v-2.8c-0.6,0.4-4.1,2.7-10.4,2.7c-13.6,0-20-10.9-20-21.9c0-13.3,9.4-23.9,23.9-23.9
			c9.5,0,17.3,4.1,18.5,4.7v40.4C585.3,120.6,585.3,125.5,580.6,130.3z M573.3,80.5c-0.6-0.3-3.4-1.4-6.7-1.4
			c-6.3,0-11.5,5-11.5,13.5c0,8.3,4.9,12.8,10.6,12.8c3.9,0,7.3-2,7.6-2.3V80.5z"/>
		<path fill="#AF292E" d="M61.7,205.2c-5.7,5.7-13.3,5.9-21.8,5.9h-17v-60.3h19.6c7,0,12.9,0.5,17.4,4.9c3.5,3.5,4.5,7.3,4.5,11.6
			c0,10.5-7.2,12.6-8.4,13c1.5,0.4,10.3,2.4,10.3,12.8C66.3,198.5,64.3,202.6,61.7,205.2z M41.7,160.8H35v15.1h1.7
			c6.9,0,15,0.9,15-7.7C51.7,160.7,45.7,160.8,41.7,160.8z M51.4,187.8c-2.3-2.3-4.8-2.5-10.5-2.5H35v15.6h6.9c6.1,0,7.8-1,9.4-2.6
			c1.3-1.3,2-3.2,2-5.2C53.3,191.2,52.7,189.2,51.4,187.8z"/>
		<path fill="#AF292E" d="M94.8,212.3c-13.1,0-22.2-9.6-22.2-23.2c0-13.8,9.5-23.8,23.1-23.8c13.1,0,22.2,9.7,22.2,23.1
			C117.9,202.6,108.5,212.3,94.8,212.3z M95.2,175.3c-6.2,0-10.3,5.3-10.3,13.3c0,8.1,4.4,13.6,10.8,13.6c6.3,0,10.1-5.2,10.1-13.3
			C105.7,180.8,101.4,175.3,95.2,175.3z"/>
		<path fill="#AF292E" d="M125.7,211.1v-65.5h12.2v65.5H125.7z"/>
		<path fill="#AF292E" d="M153.5,161c-3.9,0-7-3.1-7-7c0-3.9,3.1-7,7-7s7,3.1,7,7C160.4,158,157.4,161,153.5,161z M147.4,211.1
			v-44.5h12.2v44.5H147.4z"/>
		<path fill="#AF292E" d="M204,226.2c-2.7,2.7-7.6,5.9-16.5,5.9c-12.5,0-19.3-5.9-20-6.6l4.9-8c0.6,0.4,6.4,4.4,13.7,4.4
			c9.9,0,10.6-6.2,10.6-10.9v-2.8c-0.6,0.4-4.1,2.7-10.4,2.7c-13.6,0-20-10.9-20-21.9c0-13.3,9.4-23.9,23.9-23.9
			c9.5,0,17.3,4.1,18.5,4.7v40.4C208.8,216.6,208.8,221.5,204,226.2z M196.8,176.4c-0.6-0.3-3.4-1.4-6.7-1.4
			c-6.3,0-11.5,5-11.5,13.5c0,8.3,4.9,12.8,10.6,12.8c3.9,0,7.3-2,7.6-2.3V176.4z"/>
		<path fill="#AF292E" d="M234,212.3c-10.1,0-16.7-4.6-17.3-5.1l4.2-7.8c0.9,0.5,6,3.6,11.6,3.6c5.4,0,6.9-2.2,6.9-4.3
			c0-2.9-2.4-3.5-9.6-6.5c-3.9-1.6-11-4.4-11-12.9c0-8.5,7-14,17.5-14c9.7,0,14.7,4,14.7,4l-4,7.5c-0.5-0.3-5.6-2.9-10.1-2.9
			c-4.5,0-6,2.3-6,4.1c0,3,3.1,3.8,8,5.8c6.1,2.4,12.8,5.2,12.8,14.2C251.6,206.8,244.9,212.3,234,212.3z"/>
		<path fill="#AF292E" d="M280.9,212.3c-4,0-8.5-1-11.5-4c-3.8-3.8-3.8-8-3.8-14.3v-17.4h-7.7v-10.1h7.7v-12.4h12.2v12.4h12.7v10.1
			h-12.7v17.8c0,3.5,0.3,7.6,5.6,7.6c2.8,0,4.8-0.8,5.6-1.1l3.1,8.4C291.7,209.7,287.5,212.3,280.9,212.3z"/>
		<path fill="#AF292E" d="M326.4,211.5c-3.4,8.8-5.4,12.8-8.6,16c-1.9,1.9-5.7,4.6-13,4.6c-6.5,0-10.8-2.6-11.1-2.8l3.6-8.7
			c0.6,0.3,3.3,1.5,6.9,1.5c2.7,0,4.6-0.8,6.1-2.3c2.2-2.2,3.7-6.9,4.4-8.9L296,166.6h12.9l11.9,31.2l11.1-31.2h12L326.4,211.5z"/>
		<path fill="#AF292E" d="M378.8,175.7c-0.4-0.1-2.1-0.3-2.7-0.3c-7.4,0-11.1,4.4-12.5,6.4v29.2h-12.2v-44.5h10.4v5.6
			c0.4-0.6,5.9-6.9,14.7-6.9c3.2,0,4.8,1.1,5.1,1.2L378.8,175.7z"/>
		<path fill="#AF292E" d="M424.6,192.8h-29.3c-0.2,3.3,2.5,10,11.4,10c5.6,0,9.9-2.3,11.8-3.2l4,7.8c-0.3,0.3-7.1,4.9-16.9,4.9
			c-14.5,0-22.2-10.3-22.2-23.2c0-13.7,8.7-23.8,21.3-23.8c13,0,20,9.2,20,23.7C424.8,190.9,424.6,192.2,424.6,192.8z M405,174.3
			c-5.5,0-9,4.2-9.9,9.7h18.3C413.5,181.6,412.5,174.3,405,174.3z"/>
		<path fill="#AF292E" d="M433.8,211.1v-65.5H446v65.5H433.8z"/>
		<path fill="#AF292E" d="M472.2,212.3c-10.1,0-16.7-4.6-17.3-5.1l4.2-7.8c0.9,0.5,6,3.6,11.6,3.6c5.4,0,6.9-2.2,6.9-4.3
			c0-2.9-2.4-3.5-9.6-6.5c-3.9-1.6-11-4.4-11-12.9c0-8.5,7-14,17.5-14c9.7,0,14.7,4,14.7,4l-4,7.5c-0.5-0.3-5.6-2.9-10.1-2.9
			c-4.5,0-6,2.3-6,4.1c0,3,3.1,3.8,8,5.8c6.1,2.4,12.8,5.2,12.8,14.2C489.8,206.8,483,212.3,472.2,212.3z"/>
		<path fill="#AF292E" d="M538.2,192.8h-29.3c-0.2,3.3,2.5,10,11.4,10c5.6,0,9.9-2.3,11.8-3.2l4,7.8c-0.3,0.3-7.1,4.9-16.9,4.9
			c-14.5,0-22.2-10.3-22.2-23.2c0-13.7,8.7-23.8,21.3-23.8c13,0,20,9.2,20,23.7C538.4,190.9,538.2,192.2,538.2,192.8z M518.7,174.3
			c-5.5,0-9,4.2-9.9,9.7h18.3C527.1,181.6,526.2,174.3,518.7,174.3z"/>
		<path fill="#AF292E" d="M573.8,211.1v-23.4c0-5.8-0.3-8.7-1.9-10.3c-0.5-0.5-1.9-1.6-4.8-1.6c-3.9,0-7.5,2.3-8.2,2.8v32.6h-12.2
			v-44.5H557v3.3c0.7-0.5,6.2-4.6,12.6-4.6c4.7,0,8.7,1.4,11.6,4.3c5.1,5.1,4.8,11.7,4.8,17.5v24H573.8z"/>
	</g>
</g>
</svg>
