<svg width="242" height="auto" viewBox="0 0 242 62" fill="none" xmlns="http://www.w3.org/2000/svg">
<g clip-path="url(#clip0_118_292)">
<path d="M31.5779 6.7979C31.5779 7.47222 30.0289 8.09073 28.8083 8.09073C27.5877 8.09073 26.0427 7.47222 26.04 6.7979C26.04 6.12157 27.5877 5.50568 28.8083 5.50568C30.0289 5.50568 31.574 6.12284 31.5779 6.7979Z" fill="white"/>
<path d="M32.7926 9.01855C31.3979 9.03362 30.2948 9.82681 30.0709 11.4861C30.042 11.9234 30.0013 12.4283 30.0013 12.4283C30.0013 12.4283 28.7544 12.1223 28.7544 13.4277C28.7544 15.9386 30.8208 17.2097 32.7926 17.2235" fill="white"/>
<path d="M32.7926 9.01855C31.3979 9.03362 30.2948 9.82681 30.0709 11.4861C30.042 11.9234 30.0013 12.4283 30.0013 12.4283C30.0013 12.4283 28.7544 12.1223 28.7544 13.4277C28.7544 15.9386 30.8208 17.2097 32.7926 17.2235" fill="white"/>
<path d="M54.1322 58.3943C55.2438 58.3943 55.3088 52.6207 54.1322 52.6207H11.4525C10.2759 52.6207 10.3409 58.3943 11.4525 58.3943H54.1322Z" fill="white"/>
<path d="M34.0073 6.7979C34.0073 7.47222 35.5563 8.09073 36.7769 8.09073C37.9969 8.09073 39.5425 7.47222 39.5452 6.7979C39.5452 6.12157 37.9969 5.50568 36.7769 5.50568C35.5563 5.50568 34.0113 6.12284 34.0073 6.7979Z" fill="white"/>
<path d="M32.7924 5.53588V5.53722C33.4681 5.53722 34.0873 3.98822 34.0873 2.7676C34.0873 1.54826 33.4681 0.00262224 32.7924 0C32.1167 0.00262224 31.4976 1.54826 31.4976 2.7676C31.4976 3.98822 32.1167 5.53722 32.7924 5.53722V5.53588Z" fill="white"/>
<path d="M32.7925 17.2235C34.7643 17.2097 36.8306 15.9386 36.8306 13.4277C36.8306 12.1223 35.5837 12.4283 35.5837 12.4283C35.5837 12.4283 35.543 11.9234 35.5141 11.4861C35.2902 9.82681 34.1871 9.03362 32.7925 9.01855" fill="white"/>
<path d="M32.7925 17.2235C34.7643 17.2097 36.8306 15.9386 36.8306 13.4277C36.8306 12.1223 35.5837 12.4283 35.5837 12.4283C35.5837 12.4283 35.543 11.9234 35.5141 11.4861C35.2902 9.82681 34.1871 9.03362 32.7925 9.01855" fill="white"/>
<path d="M32.7904 19.0016C31.6735 19.0016 31.1706 19.739 30.6696 21.5867C30.384 22.6517 29.9132 23.0102 29.1456 23.0102C28.8055 23.0102 28.5796 22.9813 27.923 22.9813C27.2349 22.9813 26.6806 23.5105 26.6806 24.198C26.6806 25.5486 28.6046 26.5992 28.6046 27.8783C28.6046 29.2618 25.9755 29.0956 25.9755 30.487C25.9755 32.7898 29.2106 33.3662 29.2106 34.9914C29.2106 36.3584 27.053 35.9047 27.053 37.296C27.053 38.5587 30.8074 40.1057 30.8074 43.3277C30.8074 45.0828 28.2033 44.891 26.5953 43.2975C24.4613 41.1891 24.7358 39.1687 23.6609 39.1687C23.2197 39.1687 22.6898 39.7373 22.1198 39.7373C21.4882 39.7373 20.7193 39.0026 20.7193 37.885C20.7193 36.6434 21.4291 34.6742 21.4291 33.6046C21.4291 32.9223 21.0397 32.4116 20.431 32.4116C19.8217 32.4116 19.2781 32.4778 18.8657 32.4778C18.0915 32.4778 17.4822 31.753 17.4822 30.6334C17.4822 28.9952 18.5846 26.6551 18.5846 25.3832C18.5846 24.0588 18.0029 23.9111 16.9891 23.8014C15.9142 23.6845 15.6411 23.5013 15.6411 22.957C15.6411 21.8368 17.3292 18.5452 22.0069 17.9569C22.0069 17.9569 24.3109 20.1776 26.3878 20.1776C27.2631 20.1776 28.0681 19.8158 28.0681 19.0423C28.0681 17.5965 24.1442 16.8531 21.607 16.8531C17.5682 16.8531 11.6029 18.8664 11.6029 24.762C11.6029 29.7385 15.4336 35.581 18.8342 40.3283C19.8835 41.7938 20.5716 42.7663 20.5716 43.8017C20.5716 45.4459 17.5124 45.5536 15.8092 43.8503C13.6588 41.8687 13.8853 37.7583 12.421 37.7583C11.5333 37.7583 10.991 38.6244 10.0789 38.6244C7.81494 38.6244 7.49057 33.0426 6.92854 30.9926C6.6567 30.009 6.17602 29.7142 5.68291 29.7142C5.10904 29.7142 4.80574 29.8974 4.1918 29.8974C3.17538 29.8974 2.93373 27.4305 2.93373 27.1041C2.93373 25.3733 3.62909 23.7758 4.74072 22.9944C6.21806 23.8263 7.19905 24.0162 8.22466 23.7719C8.28968 23.7541 8.90557 23.6084 8.90557 23.0917C8.90557 22.5782 8.11635 21.7712 6.05984 21.7712C3.97706 21.7712 0 23.0863 0 27.4922C0 33.0859 9.58581 42.4025 9.58581 42.4025C10.8735 43.6882 11.4243 45.3526 11.4243 46.4741V49.1754H54.1605V46.4741C54.1605 45.3526 54.712 43.6882 55.9989 42.4025C55.9989 42.4025 65.5848 33.0859 65.5848 27.4922C65.5848 23.0863 61.6077 21.7712 59.5249 21.7712C57.4684 21.7712 56.6792 22.5782 56.6792 23.0917C56.6792 23.6084 57.2951 23.7541 57.3595 23.7719C58.3857 24.0162 59.3667 23.8263 60.8441 22.9944C61.955 23.7758 62.6511 25.3733 62.6511 27.1041C62.6511 27.4305 62.4094 29.8974 61.3923 29.8974C60.779 29.8974 60.4757 29.7142 59.9018 29.7142C59.4087 29.7142 58.9281 30.009 58.6562 30.9926C58.0942 33.0426 57.7698 38.6244 55.5058 38.6244C54.5945 38.6244 54.0514 37.7583 53.1637 37.7583C51.6995 37.7583 51.926 41.8687 49.7756 43.8503C48.0724 45.5536 45.0132 45.4459 45.0132 43.8017C45.0132 42.7663 45.7013 41.7938 46.7506 40.3283C50.1512 35.581 53.9818 29.7385 53.9818 24.762C53.9818 18.8664 48.0166 16.8531 43.9777 16.8531C41.4406 16.8531 37.5167 17.5965 37.5167 19.0423C37.5167 19.8158 38.3217 20.1776 39.197 20.1776C41.2738 20.1776 43.5779 17.9569 43.5779 17.9569C48.2555 18.5452 49.9437 21.8368 49.9437 22.957C49.9437 23.5013 49.6712 23.6845 48.5957 23.8014C47.5819 23.9111 47.0001 24.0588 47.0001 25.3832C47.0001 26.6551 48.1026 28.9952 48.1026 30.6334C48.1026 31.753 47.4932 32.4778 46.7191 32.4778C46.3067 32.4778 45.7631 32.4116 45.1537 32.4116C44.5451 32.4116 44.1557 32.9223 44.1557 33.6046C44.1557 34.6742 44.8654 36.6434 44.8654 37.885C44.8654 39.0026 44.0966 39.7373 43.4649 39.7373C42.895 39.7373 42.3651 39.1687 41.9238 39.1687C40.849 39.1687 41.1228 41.1891 38.9895 43.2975C37.3814 44.891 34.7773 45.0828 34.7773 43.3277C34.7773 40.1057 38.5318 38.5587 38.5318 37.296C38.5318 35.9047 36.3742 36.3584 36.3742 34.9914C36.3742 33.3662 39.6093 32.7898 39.6093 30.487C39.6093 29.0956 36.9803 29.2618 36.9803 27.8783C36.9803 26.5992 38.9041 25.5486 38.9041 24.198C38.9041 23.5105 38.3499 22.9813 37.6618 22.9813C37.0059 22.9813 36.7793 23.0102 36.4392 23.0102C35.6709 23.0102 35.2008 22.6517 34.9152 21.5867C34.4142 19.739 33.9112 19.0016 32.7943 19.0016H32.7904Z" fill="white"/>
<path d="M88.8794 19.2518H93.4533L96.8513 28.6512H96.9163L100.293 19.2518H104.801V33.3709H101.447V22.8422H101.381L97.5263 33.3709H95.479L91.689 22.8422H91.6234V33.3709H88.8794V19.2518H88.8794Z" fill="white"/>
<path d="M107.244 20.4015C107.244 19.5342 108.028 18.8283 108.986 18.8283C109.945 18.8283 110.707 19.5342 110.707 20.4015C110.707 21.2689 109.945 21.9544 108.986 21.9544C108.028 21.9544 107.244 21.2689 107.244 20.4015ZM107.375 33.3709V22.7818H109.356C110.402 22.7818 110.555 23.1041 110.555 24.7181V33.3709H107.375H107.375Z" fill="white"/>
<path d="M113.038 33.3709V19.2518H114.976C116.044 19.2518 116.218 19.4935 116.218 20.9058V33.3709H113.038V33.3709Z" fill="white"/>
<path d="M116.611 34.843H117.264C118.31 34.843 118.68 34.4195 118.68 33.411V22.7818H120.662C121.686 22.7818 121.86 23.1042 121.86 24.7181V33.5928C121.86 35.8115 120.64 36.7597 118.375 36.7597C117.635 36.7597 117.112 36.6789 116.611 36.5377V34.843H116.611ZM118.55 20.4015C118.55 19.5342 119.334 18.8283 120.292 18.8283C121.25 18.8283 122.013 19.5342 122.013 20.4015C122.013 21.2689 121.25 21.9544 120.292 21.9544C119.334 21.9544 118.55 21.2689 118.55 20.4015Z" fill="white"/>
<path d="M126.587 32.887L125.738 33.8752H123.93V33.3308L125.15 31.8988C124.235 30.9703 123.668 29.6998 123.668 28.1266C123.668 24.7181 126.282 22.6202 129.506 22.6202C130.595 22.6202 131.619 22.8625 132.49 23.3057L133.231 22.4384H135.06V22.9833L133.884 24.355C134.799 25.2828 135.344 26.5737 135.344 28.1266C135.344 31.5153 132.73 33.5121 129.506 33.5121C128.439 33.5121 127.437 33.2901 126.587 32.887V32.887ZM127.001 29.7201L130.965 25.0812C130.552 24.8186 130.051 24.6977 129.506 24.6977C127.959 24.6977 126.827 25.8475 126.827 28.1469C126.827 28.772 126.892 29.2966 127.001 29.7201ZM132.185 28.1469C132.185 27.5218 132.12 26.9972 131.989 26.5737L128.047 31.1726C128.46 31.4142 128.94 31.5153 129.506 31.5153C131.053 31.5153 132.185 30.426 132.185 28.1469Z" fill="white"/>
<path d="M140.224 23.8908C141.248 23.1849 142.729 22.6202 144.254 22.6202C145.43 22.6202 146.498 22.9426 146.976 23.9715C148.131 23.1449 149.699 22.6202 151.202 22.6202C152.814 22.6202 154.186 23.3057 154.186 25.5855V33.3709H151.006V26.3314C151.006 25.3228 150.636 24.9801 149.678 24.9801C148.762 24.9801 147.913 25.2421 147.238 25.4844V33.3709H144.058V26.3314C144.058 25.3228 143.687 24.9801 142.729 24.9801C141.815 24.9801 140.987 25.2421 140.29 25.464V33.3709H137.109V22.7818H139.266C139.811 22.7818 140.115 23.0037 140.224 23.8908L140.224 23.8908Z" fill="white"/>
<path d="M156.411 20.4015C156.411 19.5342 157.195 18.8283 158.153 18.8283C159.112 18.8283 159.874 19.5342 159.874 20.4015C159.874 21.2689 159.112 21.9544 158.153 21.9544C157.195 21.9544 156.411 21.2689 156.411 20.4015ZM156.542 33.3709V22.7818H158.523C159.569 22.7818 159.722 23.1041 159.722 24.7181V33.3709H156.542H156.542Z" fill="white"/>
<path d="M165.298 23.9111C166.366 23.1849 167.934 22.6202 169.459 22.6202C171.114 22.6202 172.529 23.2053 172.529 25.5855V33.3709H169.35V26.3314C169.35 25.2828 168.914 24.9801 167.934 24.9801C166.954 24.9801 166.061 25.2224 165.342 25.464V33.3709H162.162V22.7818H164.318C164.863 22.7818 165.168 23.0037 165.298 23.9111V23.9111Z" fill="white"/>
<path d="M174.753 20.4015C174.753 19.5342 175.537 18.8283 176.495 18.8283C177.454 18.8283 178.216 19.5342 178.216 20.4015C178.216 21.2689 177.454 21.9544 176.495 21.9544C175.537 21.9544 174.753 21.2689 174.753 20.4015ZM174.884 33.3709V22.7818H176.866C177.912 22.7818 178.064 23.1041 178.064 24.7181V33.3709H174.884Z" fill="white"/>
<path d="M179.96 32.6243V30.4464H180.962C181.485 30.8902 182.443 31.3334 183.772 31.3334C185.057 31.3334 185.732 31.011 185.732 30.3452C185.732 29.6998 185.318 29.3971 183.707 29.2159C181.202 28.9335 179.873 28.0661 179.873 25.9886C179.873 23.8507 181.594 22.6603 184.403 22.6603C186.058 22.6603 187.082 22.963 187.997 23.3865V25.5244H187.039C186.516 25.1613 185.601 24.8186 184.425 24.8186C183.184 24.8186 182.705 25.1613 182.705 25.7667C182.705 26.311 183.271 26.594 184.839 26.7753C187.561 27.0977 188.694 27.925 188.694 30.0629C188.694 32.1404 187.235 33.4917 183.924 33.4917C182.051 33.4917 180.853 33.0886 179.96 32.6243L179.96 32.6243Z" fill="white"/>
<path d="M189.545 22.7817H190.895V19.9576H194.075V22.7817H196.384V24.7581H194.075V30.1837C194.075 31.1922 194.511 31.4746 195.556 31.4746H196.428V33.25C195.948 33.3912 195.317 33.5324 194.424 33.5324C192.224 33.5324 190.895 32.7254 190.895 30.5271V24.7581H189.545V22.7817L189.545 22.7817Z" fill="white"/>
<path d="M200.719 28.732C200.871 30.8495 201.961 31.4346 203.725 31.4346C205.01 31.4346 206.012 31.0511 206.753 30.5468H207.733V32.4832C206.818 32.9678 205.533 33.5121 203.246 33.5121C199.5 33.5121 197.452 31.4549 197.452 28.1266C197.452 24.7181 199.848 22.6202 203.028 22.6202C206.382 22.6202 208.168 24.3346 208.168 27.8239C208.168 28.187 208.125 28.6308 208.125 28.732H200.719ZM200.763 26.9565H205.032C204.967 25.0812 204.269 24.4758 203.028 24.4758C201.917 24.4758 201.002 24.9801 200.763 26.9565Z" fill="white"/>
<path d="M213.094 25.7267V33.3709H209.913V22.7818H212.069C212.614 22.7818 212.941 23.0037 213.05 24.0523C213.769 23.3465 214.814 22.6807 216.23 22.6807C216.469 22.6807 216.709 22.7214 216.927 22.7818V25.1009H216.383C214.814 25.1009 213.703 25.424 213.094 25.7267Z" fill="white"/>
<path d="M218.409 20.4015C218.409 19.5342 219.193 18.8283 220.151 18.8283C221.109 18.8283 221.872 19.5342 221.872 20.4015C221.872 21.2689 221.109 21.9544 220.151 21.9544C219.193 21.9544 218.409 21.2689 218.409 20.4015ZM218.539 33.3709V22.7818H220.521C221.567 22.7818 221.719 23.1041 221.719 24.7181V33.3709H218.539Z" fill="white"/>
<path d="M226.795 28.732C226.947 30.8495 228.037 31.4346 229.801 31.4346C231.086 31.4346 232.088 31.0511 232.829 30.5468H233.809V32.4832C232.894 32.9678 231.609 33.5121 229.322 33.5121C225.576 33.5121 223.528 31.4549 223.528 28.1266C223.528 24.7181 225.924 22.6202 229.104 22.6202C232.458 22.6202 234.244 24.3346 234.244 27.8239C234.244 28.187 234.201 28.6308 234.201 28.732H226.795ZM226.839 26.9565H231.108C231.043 25.0812 230.345 24.4758 229.104 24.4758C227.993 24.4758 227.078 24.9801 226.839 26.9565Z" fill="white"/>
<path d="M235.118 22.7817H236.468V19.9576H239.648V22.7817H241.957V24.7581H239.648V30.1837C239.648 31.1922 240.084 31.4746 241.129 31.4746H242V33.25C241.521 33.3912 240.889 33.5324 239.996 33.5324C237.797 33.5324 236.468 32.7254 236.468 30.5271V24.7581H235.118V22.7817V22.7817Z" fill="white"/>
<path d="M88.623 44.2752H90.4307L95.6146 56.7606H95.658L100.82 44.2752H102.585V58.3943H101.409V45.5661H101.3L95.9633 58.3943H95.1136L89.799 45.5661H89.7117V58.3943H88.623V44.2752Z" fill="white"/>
<path d="M105.876 45.5864C105.876 45.2233 106.203 44.9003 106.617 44.9003C107.03 44.9003 107.357 45.2233 107.357 45.5864C107.357 45.9692 107.03 46.2719 106.617 46.2719C106.203 46.2719 105.876 45.9692 105.876 45.5864ZM106.051 58.3943V47.8859H106.399C107.053 47.8859 107.139 48.0067 107.139 48.9745V58.3943H106.051Z" fill="white"/>
<path d="M110.364 58.3943V44.2752H110.756C111.388 44.2752 111.453 44.396 111.453 45.2431V58.3943H110.364Z" fill="white"/>
<path d="M112.542 60.9361H113.152C114.198 60.9361 114.655 60.3911 114.655 59.4429V47.8859H114.982C115.657 47.8859 115.744 48.0068 115.744 48.9746V59.4836C115.744 60.875 114.982 61.7023 113.457 61.7023C113.087 61.7023 112.804 61.682 112.542 61.6215V60.936V60.9361ZM114.481 45.5865C114.481 45.2234 114.808 44.9003 115.221 44.9003C115.635 44.9003 115.962 45.2234 115.962 45.5865C115.962 45.9693 115.635 46.272 115.221 46.272C114.808 46.272 114.481 45.9693 114.481 45.5865Z" fill="white"/>
<path d="M120.123 57.5473L118.991 58.8782H118.207V58.5558L119.513 57.0227C118.62 56.0949 118.098 54.7836 118.098 53.1296C118.098 49.8223 120.232 47.7645 123.368 47.7645C124.632 47.7645 125.743 48.1072 126.592 48.7126L127.638 47.4821H128.443V47.7848L127.224 49.2169C128.139 50.1447 128.661 51.496 128.661 53.1296C128.661 56.458 126.548 58.4751 123.368 58.4751C122.105 58.4751 120.995 58.152 120.123 57.5473V57.5473ZM120.123 56.3168L126.026 49.358C125.351 48.8334 124.458 48.5511 123.368 48.5511C120.798 48.5511 119.208 50.2655 119.208 53.1296C119.208 54.4612 119.513 55.5505 120.123 56.3168V56.3168ZM127.55 53.1296C127.55 51.7987 127.224 50.7094 126.614 49.9227L120.689 56.8815C121.364 57.4061 122.28 57.6885 123.368 57.6885C125.961 57.6885 127.55 56.0141 127.55 53.1296L127.55 53.1296Z" fill="white"/>
<path d="M130.036 57.4868V56.6595H130.471C131.016 57.1237 132.018 57.6884 133.652 57.6884C135.742 57.6884 136.744 56.8814 136.744 55.429C136.744 54.1992 136.004 53.6949 133.695 53.3515C131.517 53.0291 130.145 52.3232 130.145 50.5478C130.145 48.7329 131.691 47.7644 133.956 47.7644C135.612 47.7644 136.614 48.1682 137.245 48.551V49.3784H136.809C136.2 48.9141 135.438 48.551 133.978 48.551C132.127 48.551 131.168 49.1965 131.168 50.4677C131.168 51.6778 131.931 52.1414 134.13 52.4841C136.505 52.8275 137.811 53.4927 137.811 55.3482C137.811 57.2846 136.526 58.475 133.695 58.475C131.757 58.475 130.689 57.93 130.036 57.4868Z" fill="white"/>
<path d="M139.054 47.8859H140.557V44.9607H141.646V47.8859H144.673V48.6522H141.646V55.9937C141.646 57.2649 142.277 57.6477 143.606 57.6477H144.913V58.3542C144.565 58.4146 143.911 58.475 143.236 58.475C141.493 58.475 140.557 57.7889 140.557 56.1152V48.6522H139.054V47.8859Z" fill="white"/>
<path d="M148.725 61.3392L150.446 57.6681L145.916 48.188V47.8859H146.918L150.969 56.4783H150.99L154.824 47.8859H155.804V48.188L149.684 61.6616H148.725V61.3392Z" fill="white"/>
<path d="M159.008 49.7008C159.88 48.7329 161.121 47.8051 162.733 47.8051C163.016 47.8051 163.212 47.8452 163.255 47.8655V48.6922C163.255 48.6922 162.972 48.6725 162.777 48.6725C161.121 48.6725 159.923 49.6607 159.008 50.6489V58.3942H157.919V47.8859H158.42C158.899 47.8859 159.008 48.0067 159.008 49.0356V49.7007V49.7008Z" fill="white"/>
<path d="M169.311 57.6477C171.119 57.6477 172.23 57.1237 172.84 56.559H173.319V57.3049C172.513 57.89 171.272 58.475 169.203 58.475C165.783 58.475 163.888 56.4376 163.888 53.1703C163.888 49.8623 166.023 47.7644 168.919 47.7644C171.707 47.7644 173.58 49.2569 173.58 52.6863C173.58 52.8879 173.559 53.1296 173.559 53.1703H164.999C164.999 56.1152 166.48 57.6477 169.311 57.6477H169.311ZM165.021 52.404H172.492C172.426 49.6003 171.032 48.5313 168.919 48.5313C166.828 48.5313 165.282 49.8222 165.021 52.404Z" fill="white"/>
<path d="M175.848 58.3943V44.2752H176.24C176.871 44.2752 176.936 44.396 176.936 45.2431V58.3943H175.848Z" fill="white"/>
<path d="M179.29 57.4868V56.6595H179.725C180.27 57.1237 181.272 57.6884 182.905 57.6884C184.996 57.6884 185.998 56.8814 185.998 55.429C185.998 54.1992 185.257 53.6949 182.949 53.3515C180.771 53.0291 179.399 52.3232 179.399 50.5478C179.399 48.7329 180.945 47.7644 183.21 47.7644C184.865 47.7644 185.867 48.1682 186.499 48.551V49.3784H186.063C185.454 48.9141 184.691 48.551 183.232 48.551C181.381 48.551 180.422 49.1965 180.422 50.4677C180.422 51.6778 181.185 52.1414 183.384 52.4841C185.758 52.8275 187.065 53.4927 187.065 55.3482C187.065 57.2846 185.78 58.475 182.949 58.475C181.011 58.475 179.943 57.93 179.29 57.4868Z" fill="white"/>
<path d="M193.971 57.6477C195.779 57.6477 196.89 57.1237 197.499 56.559H197.979V57.3049C197.173 57.89 195.931 58.475 193.862 58.475C190.443 58.475 188.548 56.4376 188.548 53.1703C188.548 49.8623 190.682 47.7644 193.579 47.7644C196.367 47.7644 198.24 49.2569 198.24 52.6863C198.24 52.8879 198.218 53.1296 198.218 53.1703H189.658C189.658 56.1152 191.139 57.6477 193.971 57.6477ZM189.681 52.404H197.151C197.086 49.6003 195.692 48.5313 193.579 48.5313C191.488 48.5313 189.942 49.8222 189.681 52.404Z" fill="white"/>
<path d="M201.574 49.5596C202.859 48.6114 204.558 47.7644 206.562 47.7644C208.152 47.7644 209.503 48.3698 209.503 50.5681V58.3943H208.413V50.6889C208.413 49.0152 207.433 48.6114 206.148 48.6114C204.471 48.6114 202.859 49.4788 201.574 50.3869V58.3943H200.485V47.8859H200.986C201.465 47.8859 201.574 48.0067 201.574 48.9345V49.5596Z" fill="white"/>
</g>
<defs>
<clipPath id="clip0_118_292">
<rect width="242" height="61.7023" fill="white"/>
</clipPath>
</defs>
</svg>
