<?xml version="1.0" encoding="UTF-8" standalone="no"?>
<svg
   xmlns:dc="http://purl.org/dc/elements/1.1/"
   xmlns:cc="http://creativecommons.org/ns#"
   xmlns:rdf="http://www.w3.org/1999/02/22-rdf-syntax-ns#"
   xmlns:svg="http://www.w3.org/2000/svg"
   xmlns="http://www.w3.org/2000/svg"
   xmlns:sodipodi="http://sodipodi.sourceforge.net/DTD/sodipodi-0.dtd"
   xmlns:inkscape="http://www.inkscape.org/namespaces/inkscape"
   version="1.1"
   id="svg2"
   xml:space="preserve"
   width="3333.3333"
   height="700.53333"
   viewBox="0 0 3333.3333 700.53333"
   sodipodi:docname="SOS_Logo_Sort tekst venstre.eps"><metadata
     id="metadata8"><rdf:RDF><cc:Work
         rdf:about=""><dc:format>image/svg+xml</dc:format><dc:type
           rdf:resource="http://purl.org/dc/dcmitype/StillImage" /></cc:Work></rdf:RDF></metadata><defs
     id="defs6" /><sodipodi:namedview
     pagecolor="#ffffff"
     bordercolor="#666666"
     borderopacity="1"
     objecttolerance="10"
     gridtolerance="10"
     guidetolerance="10"
     inkscape:pageopacity="0"
     inkscape:pageshadow="2"
     inkscape:window-width="640"
     inkscape:window-height="480"
     id="namedview4" /><g
     id="g10"
     inkscape:groupmode="layer"
     inkscape:label="ink_ext_XXXXXX"
     transform="matrix(1.3333333,0,0,-1.3333333,0,700.53333)"><g
       id="g12"
       transform="scale(0.1)"><path
         d="M 2627.04,0 C 4077.75,0 5253.92,1176.16 5253.92,2626.96 5253.92,4077.83 4077.75,5254 2627.04,5254 1176.17,5254 0,4077.83 0,2626.96 0,1176.16 1176.17,0 2627.04,0"
         style="fill:#ffffff;fill-opacity:1;fill-rule:nonzero;stroke:none"
         id="path14" /><path
         d="m 4511.93,1295.45 c -195.44,4.7 -348.47,111.41 -514.55,185.9 -176.5,87.85 -430.45,105.75 -614.5,19.89 -235.48,-120.63 -472.23,-253.3 -753.21,-246.38 l -2.63,0.25 c -281.07,-6.85 -517.89,125.89 -753.21,246.37 -184.06,86.02 -438.16,68.04 -614.5,-19.81 -166.24,-74.57 -319.193,-181.2 -514.635,-185.98 -147.14,-5.25 -286.172,21.17 -408.718,82.28 l -27.536,13.92 c 103.93,-194.71 231.5,-375.04 379.27,-536.742 3.031,-0.636 5.094,-1.187 5.094,-1.187 237.949,-43.539 419.145,87.769 607.025,183.099 158.52,69.87 384.21,84.03 546.39,11.3 215.5,-91.04 412.13,-226.719 656.99,-246.688 0,0 29.21,-8.762 232.69,-1.59 253.14,14.879 454,154.848 674.35,247.968 162.34,72.73 387.94,58.56 546.54,-11.31 187.97,-95.33 369.08,-226.549 607.02,-183.189 0,0 0.57,0.16 0.97,0.238 148.01,161.541 275.89,341.801 380.05,536.841 -128.43,-70.27 -275.97,-100.83 -432.9,-95.18"
         style="fill:#265b9e;fill-opacity:1;fill-rule:nonzero;stroke:none"
         id="path16" /><path
         d="M 77.0313,1999 C 196.008,1884.88 330.012,1809.38 475.559,1758.36 c 289.668,-116.1 586.971,24.51 833.501,147.14 192.58,84.11 457.9,72.73 639.18,-26.34 253.93,-184.22 575.83,-282.27 904.32,-203.96 254.02,34.94 425.75,268.18 686.45,289.9 348.23,62.31 579.65,-199.26 896.69,-233.24 284.97,-27.13 541.93,113.25 748.04,292.53 45.43,193.7 70.18,395.19 70.18,602.57 0,1450.87 -1176.17,2626.96 -2626.88,2626.96 C 1176.17,5253.92 0,4077.83 0,2626.96 0,2410.99 26.7383,2201.37 75.9141,2000.67 l 1.1172,-1.67"
         style="fill:#265b9e;fill-opacity:1;fill-rule:nonzero;stroke:none"
         id="path18" /><path
         d="m 4083.64,442.289 c -74.48,94.383 -191.94,164.012 -294.92,203.57 -164.25,60.473 -372.89,56.661 -527.68,-22.609 -191.23,-92.949 -391.52,-187.801 -617.29,-196.711 h -33.58 c -224.41,9.859 -423.68,104.09 -614.03,196.563 -154.7,79.328 -363.35,83.07 -527.68,22.589 -102.73,-39.632 -220.2,-109.179 -294.84,-203.55 0,0 -0.64,-0.969 -1.67,-2.243 C 1588.54,162.18 2088.77,0 2627.04,0 c 539.06,0 1040.25,162.66 1457.32,441.422 -0.32,0.316 -0.72,0.867 -0.72,0.867"
         style="fill:#265b9e;fill-opacity:1;fill-rule:nonzero;stroke:none"
         id="path20" /><path
         d="m 3552.62,2152.04 c 74.41,143.16 116.42,305.81 116.42,478.42 0,574.08 -465.53,1039.45 -1039.61,1039.45 -574.08,0 -1039.45,-465.37 -1039.45,-1039.45 0,-173.72 42.49,-337.49 117.93,-481.45 h 1821.07 20.85 l 2.79,3.03"
         style="fill:#f8db19;fill-opacity:1;fill-rule:nonzero;stroke:none"
         id="path22" /><path
         d="m 2088.62,3801.21 c 43.45,449.46 230.29,877.28 535.08,1247.87 l 1.27,0.48 c 302.56,-367.73 488.7,-791.72 534.05,-1237.52 l 0.72,-10.67 -4.14,1.12 c -161.86,73.37 -341.47,114.19 -530.63,114.19 -191.54,0 -373.22,-41.78 -536.67,-116.98"
         style="fill:#f8db19;fill-opacity:1;fill-rule:nonzero;stroke:none"
         id="path24" /><path
         d="m 3318.26,3715.66 c 400.84,207.87 861.35,283.79 1338.19,229.59 l 1.27,-1.04 C 4513.36,3490.46 4258.63,3103.63 3909.37,2823.2 l -8.68,-6.36 -1.28,4.21 c -26.49,175.63 -89.75,348.55 -192.73,507.31 -104.01,160.75 -238.1,290.62 -389.78,386.75"
         style="fill:#f8db19;fill-opacity:1;fill-rule:nonzero;stroke:none"
         id="path26" /><path
         d="m 1339.31,2634.04 c -0.48,-162.11 29.76,-326.67 93.9,-485.35 H 259.906 l -3.984,0.08 C 578.852,2407 947.145,2574.68 1337.88,2633.8"
         style="fill:#f8db19;fill-opacity:1;fill-rule:nonzero;stroke:none"
         id="path28" /><path
         d="m 3914.69,2633.8 c 0.57,-162.34 -29.59,-326.91 -93.98,-485.5 h 1173.46 3.83 c -322.93,258.22 -691.14,425.81 -1081.79,485.02"
         style="fill:#f8db19;fill-opacity:1;fill-rule:nonzero;stroke:none"
         id="path30" /><path
         d="m 1927.07,3715.27 c -402.67,204.36 -863.74,276.3 -1340.257,217.89 l -0.954,-0.8 c 148.02,-452.64 406.004,-837.24 757.891,-1114.57 l 8.69,-6.53 1.27,4.37 c 24.75,175.87 86.81,349.27 188.28,508.91 102.74,161.71 235.55,292.61 386.51,390.09"
         style="fill:#f8db19;fill-opacity:1;fill-rule:nonzero;stroke:none"
         id="path32" /><path
         d="m 7748.96,4451.36 c -106.46,51.09 -225.08,80.69 -343.65,80.69 -116.19,0 -266.23,-56.5 -266.23,-260.86 0,-325.23 740.59,-188.28 740.59,-817.35 0,-411.42 -292.85,-567.39 -634.11,-567.39 -183.91,0 -266.19,26.89 -433.2,72.57 l 31.44,338.85 c 116.19,-69.87 249.29,-115.71 382.42,-115.71 128.28,0 300.09,72.57 300.09,242.08 0,357.63 -740.6,209.76 -740.6,830.88 0,419.53 292.84,572.8 590.55,572.8 145.23,0 280.76,-21.64 404.18,-67.32 l -31.48,-309.24"
         style="fill:#171717;fill-opacity:1;fill-rule:nonzero;stroke:none"
         id="path34" /><path
         d="m 8838.83,3182.16 c 346.09,0 474.37,341.55 474.37,680.39 0,330.65 -137.95,669.5 -474.37,669.5 -336.41,0 -474.37,-338.85 -474.37,-669.5 0,-338.84 128.28,-680.39 474.37,-680.39 z m 0,1645.76 c 530.03,0 827.69,-398.05 827.69,-965.37 0,-567.39 -292.84,-976.1 -827.69,-976.1 -542.13,0 -827.73,400.6 -827.73,976.1 0,575.43 290.42,965.37 827.73,965.37"
         style="fill:#171717;fill-opacity:1;fill-rule:nonzero;stroke:none"
         id="path36" /><path
         d="m 9882.71,4795.61 h 338.79 V 3214.47 h 655.9 v -295.88 h -994.69 v 1877.02"
         style="fill:#171717;fill-opacity:1;fill-rule:nonzero;stroke:none"
         id="path38" /><path
         d="m 12486.8,3182.16 c 346.1,0 474.4,341.55 474.4,680.39 0,330.65 -138,669.5 -474.4,669.5 -336.4,0 -474.3,-338.85 -474.3,-669.5 0,-338.84 128.2,-680.39 474.3,-680.39 z m 0,1645.76 c 530.1,0 827.7,-398.05 827.7,-965.37 0,-567.39 -292.8,-976.1 -827.7,-976.1 -542.1,0 -827.7,400.6 -827.7,976.1 0,575.43 290.4,965.37 827.7,965.37"
         style="fill:#171717;fill-opacity:1;fill-rule:nonzero;stroke:none"
         id="path40" /><path
         d="m 14931.2,4432.57 c -130.7,67.17 -300.1,99.48 -435.6,99.48 -394.5,0 -612.3,-295.72 -612.3,-680.32 0,-381.81 213,-669.57 573.6,-669.57 91.9,0 164.5,10.82 222.6,26.9 v 489.4 h -358.2 v 295.88 h 682.5 V 2983.21 c -179.1,-53.8 -365.4,-96.76 -546.9,-96.76 -547,0 -927,303.83 -927,938.38 0,642.76 353.4,1003.09 927,1003.09 196,0 350.9,-29.6 496.1,-77.98 l -21.8,-317.37"
         style="fill:#171717;fill-opacity:1;fill-rule:nonzero;stroke:none"
         id="path42" /><path
         d="m 16927.9,4451.36 c -106.5,51.09 -225.2,80.69 -343.8,80.69 -116.2,0 -266.1,-56.5 -266.1,-260.86 0,-325.23 740.6,-188.28 740.6,-817.35 0,-411.42 -292.9,-567.39 -634.1,-567.39 -184,0 -266.3,26.89 -433.3,72.57 l 31.4,338.85 c 116.2,-69.87 249.4,-115.71 382.5,-115.71 128.2,0 300.1,72.57 300.1,242.08 0,357.63 -740.6,209.76 -740.6,830.88 0,419.53 292.8,572.8 590.5,572.8 145.2,0 280.8,-21.64 404.1,-67.32 l -31.3,-309.24"
         style="fill:#171717;fill-opacity:1;fill-rule:nonzero;stroke:none"
         id="path44" /><path
         d="m 17673.2,4499.74 h -484 v 295.87 h 1306.9 v -295.87 h -484 V 2918.59 h -338.9 v 1581.15"
         style="fill:#171717;fill-opacity:1;fill-rule:nonzero;stroke:none"
         id="path46" /><path
         d="m 19021.3,3994.34 h 111.2 c 167.1,0 358.3,26.82 358.3,260.78 0,225.84 -188.8,244.62 -358.3,244.62 h -111.2 z m -338.9,801.27 h 365.5 c 363,0 796.2,13.37 796.2,-508.18 0,-220.59 -133,-403.39 -348.5,-435.7 v -5.41 c 92,-7.96 147.7,-110.14 179.2,-193.53 l 271,-734.2 h -377.5 l -203.4,586.34 c -48.4,139.74 -92,193.53 -234.8,193.53 h -108.8 v -779.87 h -338.9 v 1877.02"
         style="fill:#171717;fill-opacity:1;fill-rule:nonzero;stroke:none"
         id="path48" /><path
         d="m 20819.8,4419.05 h -4.8 l -244.5,-774.38 h 493.7 z m -186.4,376.56 h 382.4 l 663.1,-1877.02 h -375.2 l -145.1,430.37 h -685 L 20326,2918.59 h -350.9 l 658.3,1877.02"
         style="fill:#171717;fill-opacity:1;fill-rule:nonzero;stroke:none"
         id="path50" /><path
         d="m 21798.2,4795.61 h 416.2 l 643.8,-1403.68 h 5 v 1403.68 h 324.2 V 2918.59 h -413.8 l -646.2,1403.69 h -4.9 V 2918.59 h -324.3 v 1877.02"
         style="fill:#171717;fill-opacity:1;fill-rule:nonzero;stroke:none"
         id="path52" /><path
         d="m 23901.3,3214.47 h 188.8 c 283.1,0 556.6,233.96 556.6,642.67 0,408.64 -273.5,642.6 -556.6,642.6 h -188.8 z m -338.8,1581.14 h 462.2 c 517.9,0 975.3,-193.68 975.3,-938.47 0,-744.85 -457.4,-938.55 -975.3,-938.55 h -462.2 v 1877.02"
         style="fill:#171717;fill-opacity:1;fill-rule:nonzero;stroke:none"
         id="path54" /><path
         d="m 6785.71,1107.9 25.78,125.34 h 733.4 l -25.78,-125.34 h -733.4"
         style="fill:#171717;fill-opacity:1;fill-rule:nonzero;stroke:none"
         id="path56" /><path
         d="m 8559.03,1717.39 c -26.74,12.89 -56.33,19.34 -88.81,19.34 -36.76,0 -65.05,-10.98 -84.86,-32.94 -19.82,-21.96 -34.5,-55.63 -44.05,-100.99 l -21.49,-98.84 h 169.75 L 8460.2,1370.75 H 8288.31 L 8107.83,527.059 h -172.61 l 181.2,843.691 h -125.34 l 29.37,133.21 h 124.62 l 26.5,120.33 c 19.1,86.42 53.71,149.53 103.85,189.39 50.13,39.87 115.55,59.85 196.24,59.85 42.97,0 81.17,-5.74 114.59,-17.19 l -27.22,-138.95"
         style="fill:#171717;fill-opacity:1;fill-rule:nonzero;stroke:none"
         id="path58" /><path
         d="m 8970.85,1319.18 c 0,23.88 -8.71,42.82 -26.14,56.98 -17.42,14.01 -41.42,21.09 -71.98,21.09 -50.61,0 -96.45,-20.77 -137.51,-62.31 -41.06,-41.54 -68.04,-92.63 -80.93,-153.27 211.04,0 316.56,45.84 316.56,137.51 z m 167.6,4.31 c 0,-88.34 -41.07,-153.43 -123.19,-195.13 -82.13,-41.87 -206.74,-63.66 -373.86,-65.58 l -1.43,-7.88 v -14.32 c 0,-49.65 14.8,-88.26 44.4,-115.631 29.6,-27.527 70.9,-41.219 123.91,-41.219 36.28,0 75.07,6.52 116.38,19.739 41.3,13.043 79.14,29.922 113.52,50.453 l -28.65,-142.524 c -72.1,-39.148 -151.6,-58.726 -238.5,-58.726 -95.01,0 -169.14,26.5 -222.38,79.5 -53.24,53 -79.86,127.719 -79.86,224.168 0,83.07 18.15,160.83 54.43,233.08 36.29,72.42 86.9,129.15 151.84,170.46 64.94,41.3 136.08,62 213.43,62 76.87,0 137.75,-18.15 182.63,-54.44 44.89,-36.29 67.33,-84.28 67.33,-143.95"
         style="fill:#171717;fill-opacity:1;fill-rule:nonzero;stroke:none"
         id="path60" /><path
         d="m 9729.32,1337.09 c -29.13,15.28 -57.3,22.92 -84.52,22.92 -49.65,0 -94.89,-25.07 -135.72,-75.21 -40.82,-50.13 -70.07,-116.98 -87.73,-200.53 l -66.61,-313.7 h -173.32 l 101.7,477 c 24.35,118.89 38.67,204.35 42.97,256.39 h 170.46 c -4.78,-46.31 -11.46,-97.88 -20.06,-154.69 h 2.87 c 30.08,54.43 61.71,96.77 94.9,127.17 33.18,30.23 71.98,45.44 116.38,45.44 18.14,0 42.26,-3.59 72.33,-10.76 l -33.65,-174.03"
         style="fill:#171717;fill-opacity:1;fill-rule:nonzero;stroke:none"
         id="path62" /><path
         d="m 10132.5,1752.49 c 0,-28.65 -10.2,-52.44 -30.8,-71.22 -20.5,-18.95 -45.6,-28.33 -75.2,-28.33 -28.61,0 -52.84,8.59 -72.66,25.78 -19.81,17.19 -29.72,39.86 -29.72,68.04 0,29.13 10.51,52.76 31.51,70.91 21.02,18.14 46.27,27.21 75.97,27.21 27.6,0 51.4,-8.76 71.2,-26.1 19.8,-17.51 29.7,-39.55 29.7,-66.29 z M 9937.73,758.398 c -52.52,0 -92.51,13.293 -119.97,39.711 -27.45,26.582 -41.18,64.371 -41.18,113.551 0,24.828 2.63,49.18 7.88,73.059 l 106.72,519.241 h 174.02 l -97.39,-461.95 c -10.03,-47.74 -15.04,-78.541 -15.04,-92.389 0,-36.289 20.77,-54.422 62.33,-54.422 24.3,0 46.1,3.813 65.2,11.453 L 10053,774.871 c -41,-10.98 -79.46,-16.473 -115.27,-16.473"
         style="fill:#171717;fill-opacity:1;fill-rule:nonzero;stroke:none"
         id="path64" /><path
         d="m 10686.9,1319.18 c 0,23.88 -8.7,42.82 -26.2,56.98 -17.4,14.01 -41.4,21.09 -71.9,21.09 -50.7,0 -96.5,-20.77 -137.5,-62.31 -41.1,-41.54 -68.1,-92.63 -81,-153.27 211.1,0 316.6,45.84 316.6,137.51 z m 167.6,4.31 c 0,-88.34 -41.1,-153.43 -123.2,-195.13 -82.1,-41.87 -206.8,-63.66 -373.9,-65.58 l -1.4,-7.88 v -14.32 c 0,-49.65 14.8,-88.26 44.4,-115.631 29.6,-27.527 70.9,-41.219 123.9,-41.219 36.3,0 75.1,6.52 116.4,19.739 41.3,13.043 79.1,29.922 113.5,50.453 l -28.6,-142.524 c -72.1,-39.148 -151.6,-58.726 -238.5,-58.726 -95.1,0 -169.2,26.5 -222.4,79.5 -53.3,53 -79.9,127.719 -79.9,224.168 0,83.07 18.2,160.83 54.5,233.08 36.2,72.42 86.9,129.15 151.8,170.46 64.9,41.3 136.1,62 213.4,62 76.9,0 137.8,-18.15 182.6,-54.44 44.9,-36.29 67.4,-84.28 67.4,-143.95"
         style="fill:#171717;fill-opacity:1;fill-rule:nonzero;stroke:none"
         id="path66" /><path
         d="m 12510.3,1324.2 c 0,-23.88 -7.4,-70.91 -22.2,-141.09 L 12400,770.57 h -171.8 l 89.5,423.99 c 9.5,51.09 14.3,82.36 14.3,93.83 0,64.45 -28.4,96.69 -85.2,96.69 -44,0 -90.5,-26.91 -139.7,-80.54 -49.2,-53.8 -80.2,-111.41 -93.1,-173 l -75.9,-360.97 h -173.3 l 90.2,423.99 c 9.6,51.09 14.3,82.36 14.3,93.83 0,64.45 -28.4,96.69 -85.2,96.69 -29.1,0 -60.4,-12.66 -93.8,-37.96 -33.4,-25.31 -63,-58.17 -88.8,-98.44 -25.8,-40.43 -42.5,-79.66 -50.2,-117.86 L 11474,770.57 h -174 l 111,512.81 c 17.2,82.12 29.8,155.65 37.9,220.58 h 169 c -3.8,-40.58 -11.2,-93.1 -22.2,-157.56 h 2.9 c 37.7,55.39 80,98.52 126.8,129.23 46.8,30.88 93.3,46.25 139.6,46.25 112.2,0 172.4,-59.69 180.5,-179.06 40.1,58.25 84.4,102.66 132.9,133.22 48.4,30.55 98,45.84 148.6,45.84 61.1,0 106.9,-17.11 137.5,-51.18 30.6,-34.22 45.8,-82.99 45.8,-146.5"
         style="fill:#171717;fill-opacity:1;fill-rule:nonzero;stroke:none"
         id="path68" /><path
         d="m 13125.6,1319.18 c 0,23.88 -8.8,42.82 -26.2,56.98 -17.4,14.01 -41.4,21.09 -72,21.09 -50.6,0 -96.4,-20.77 -137.5,-62.31 -41,-41.54 -68,-92.63 -80.9,-153.27 211,0 316.6,45.84 316.6,137.51 z m 167.6,4.31 c 0,-88.34 -41.1,-153.43 -123.2,-195.13 -82.2,-41.87 -206.8,-63.66 -373.9,-65.58 l -1.4,-7.88 v -14.32 c 0,-49.65 14.8,-88.26 44.4,-115.631 29.6,-27.527 70.9,-41.219 123.9,-41.219 36.3,0 75.1,6.52 116.4,19.739 41.3,13.043 79.1,29.922 113.5,50.453 l -28.7,-142.524 c -72.1,-39.148 -151.6,-58.726 -238.5,-58.726 -95,0 -169.1,26.5 -222.3,79.5 -53.3,53 -79.9,127.719 -79.9,224.168 0,83.07 18.1,160.83 54.4,233.08 36.3,72.42 86.9,129.15 151.9,170.46 64.9,41.3 136,62 213.4,62 76.9,0 137.7,-18.15 182.6,-54.44 44.9,-36.29 67.4,-84.28 67.4,-143.95"
         style="fill:#171717;fill-opacity:1;fill-rule:nonzero;stroke:none"
         id="path70" /><path
         d="m 13916.3,1379.35 c -33.5,8.59 -65.9,12.89 -97.5,12.89 -54.9,0 -103.1,-14.33 -144.6,-42.97 -41.6,-28.65 -75,-71.79 -100.3,-129.24 -25.3,-57.62 -38,-117.37 -38,-179.45 0,-49.65 9.5,-87.299 28.3,-112.76 18.9,-25.621 46.2,-38.359 82,-38.359 50.2,0 95.8,26.98 136.8,80.93 41.1,53.959 71.9,127.249 92.4,219.869 z m 65.8,-608.78 h -175.4 c 0,22.442 4.3,68.039 12.9,136.789 h -2.9 c -34.9,-53.468 -70.5,-92.617 -107.1,-117.449 -36.5,-24.828 -78.4,-37.238 -125.7,-37.238 -70.2,0 -124.7,24.187 -163.6,72.648 -38.9,48.469 -58.4,116.66 -58.4,204.51 0,89.29 19.9,172.69 59.8,250.37 39.9,77.51 94.6,137.18 164,179.04 69.5,41.7 148.4,62.64 236.7,62.64 42,0 82.2,-4.31 120.4,-12.91 l 74.4,347.37 h 170.5 l -179.1,-852.29 c -5.7,-24.339 -11.5,-61.82 -17.5,-112.441 -6,-50.609 -9,-90.961 -9,-121.039"
         style="fill:#171717;fill-opacity:1;fill-rule:nonzero;stroke:none"
         id="path72" /><path
         d="m 15151.7,1379.35 c -33.4,8.59 -65.9,12.89 -97.4,12.89 -54.9,0 -103.1,-14.33 -144.7,-42.97 -41.5,-28.65 -74.9,-71.79 -100.2,-129.24 -25.3,-57.62 -38,-117.37 -38,-179.45 0,-49.65 9.4,-87.299 28.3,-112.76 18.8,-25.621 46.2,-38.359 82,-38.359 50.1,0 95.7,26.98 136.8,80.93 41.1,53.959 71.9,127.249 92.4,219.869 z m 65.9,-608.78 h -175.5 c 0,22.442 4.3,68.039 12.9,136.789 h -2.9 c -34.8,-53.468 -70.5,-92.617 -107.1,-117.449 -36.4,-24.828 -78.3,-37.238 -125.6,-37.238 -70.2,0 -124.8,24.187 -163.7,72.648 -38.9,48.469 -58.3,116.66 -58.3,204.51 0,89.29 19.9,172.69 59.7,250.37 39.9,77.51 94.6,137.18 164.1,179.04 69.4,41.7 148.4,62.64 236.7,62.64 42,0 82.1,-4.31 120.3,-12.91 l 74.5,347.37 h 170.4 l -179,-852.29 c -5.7,-24.339 -11.6,-61.82 -17.5,-112.441 -6.1,-50.609 -9,-90.961 -9,-121.039"
         style="fill:#171717;fill-opacity:1;fill-rule:nonzero;stroke:none"
         id="path74" /><path
         d="m 15931.7,1319.18 c 0,23.88 -8.8,42.82 -26.2,56.98 -17.5,14.01 -41.4,21.09 -72,21.09 -50.6,0 -96.4,-20.77 -137.5,-62.31 -41,-41.54 -68,-92.63 -80.9,-153.27 211,0 316.6,45.84 316.6,137.51 z m 167.5,4.31 c 0,-88.34 -41,-153.43 -123.1,-195.13 -82.2,-41.87 -206.8,-63.66 -373.9,-65.58 l -1.4,-7.88 v -14.32 c 0,-49.65 14.8,-88.26 44.4,-115.631 29.6,-27.527 70.9,-41.219 123.9,-41.219 36.3,0 75,6.52 116.4,19.739 41.2,13.043 79.1,29.922 113.5,50.453 l -28.7,-142.524 c -72.1,-39.148 -151.6,-58.726 -238.5,-58.726 -95,0 -169.2,26.5 -222.4,79.5 -53.2,53 -79.8,127.719 -79.8,224.168 0,83.07 18.1,160.83 54.4,233.08 36.3,72.42 86.9,129.15 151.9,170.46 64.9,41.3 136,62 213.4,62 76.9,0 137.7,-18.15 182.6,-54.44 44.9,-36.29 67.3,-84.28 67.3,-143.95"
         style="fill:#171717;fill-opacity:1;fill-rule:nonzero;stroke:none"
         id="path76" /><path
         d="m 16643.6,1370.75 h -178.4 l -70.2,-331.6 c -8.6,-41.541 -12.9,-69.47 -12.9,-83.798 0,-21.961 5.1,-37.883 15.1,-47.59 10,-9.86 26.5,-14.711 49.4,-14.711 22,0 55.4,8.59 100.3,25.781 l -28.7,-135.363 c -47.7,-18.629 -95,-27.938 -141.8,-27.938 -113.1,0 -169.7,55.141 -169.7,165.449 0,27.692 5,63.969 15,108.85 l 71.6,340.92 h -117.4 l 31.5,133.21 h 113.9 l 37.9,175.47 181.9,47.99 -46.5,-223.46 h 179.8 l -30.8,-133.21"
         style="fill:#171717;fill-opacity:1;fill-rule:nonzero;stroke:none"
         id="path78" /><path
         d="m 17637.7,1381.49 c -29.7,7.16 -65.9,10.75 -108.9,10.75 -49.7,0 -95.5,-15.76 -137.5,-47.27 -42,-31.51 -74.9,-74.25 -98.5,-128.2 -23.7,-53.96 -35.5,-112.69 -35.5,-176.19 0,-49.182 9.6,-86.658 28.7,-112.451 19.1,-25.777 45.1,-38.668 78.1,-38.668 33.4,0 65.1,11.461 95.2,34.379 30.1,22.922 57.6,58.492 82.4,106.72 24.8,48.22 42.7,98.83 53.7,151.83 z m -401.1,-955.42 c -78.8,0 -154.5,18.149 -227.1,54.442 l 30.8,146.097 c 68.3,-44.398 138,-66.597 209.2,-66.597 74,0 132.7,20.289 176.2,60.879 43.4,40.57 74.4,105.75 93.1,195.519 l 18.6,89.531 h -2.9 c -35.8,-55.871 -72,-95.421 -108.4,-118.5 -36.7,-23.152 -77.1,-34.769 -121.5,-34.769 -68.7,0 -122.9,23.949 -162.2,72.019 -39.4,47.899 -59.1,115.86 -59.1,203.719 0,90.71 19.9,174.59 59.8,251.79 39.8,77.03 94.4,136.63 163.7,178.65 69.2,42.01 147.7,63.03 235.6,63.03 77.8,0 174.5,-10.99 290.1,-32.95 l -136.8,-648.168 c -22,-103.614 -51.8,-184.063 -89.6,-241.371 -37.7,-57.289 -86.8,-100.5 -147.1,-129.621 -60.5,-29.141 -134.6,-43.7 -222.4,-43.7"
         style="fill:#171717;fill-opacity:1;fill-rule:nonzero;stroke:none"
         id="path80" /><path
         d="m 18455.6,1218.2 c 0,51.09 -11.9,91.67 -35.5,121.75 -23.7,30.09 -56.5,45.13 -98.5,45.13 -43.4,0 -82.8,-14.96 -118.1,-44.73 -35.4,-29.92 -63.2,-70.34 -83.5,-121.43 -20.3,-51.1 -30.4,-105.77 -30.4,-164.02 0,-51.56 12,-92.068 36.1,-121.361 24.1,-29.437 57,-44.078 98.5,-44.078 44.4,0 84.4,14.891 120,44.719 35.5,29.84 63.1,70.35 82.3,121.45 19.4,51.08 29.1,105.27 29.1,162.57 z m 174.7,4.3 c 0,-88.81 -17.8,-169.9 -53.4,-243.121 -35.6,-73.359 -84.7,-129.469 -147.5,-168.379 -62.8,-38.918 -135.2,-58.328 -217.3,-58.328 -92.2,0 -164.7,26.5 -217.4,79.5 -52.8,53 -79.2,126.289 -79.2,219.868 0,88.81 17.8,169.5 53.4,242.08 35.5,72.57 84.6,128.67 147.2,168.3 62.5,39.63 135.1,59.46 217.7,59.46 90.7,0 162.8,-26.67 216.3,-79.83 53.5,-53.31 80.2,-126.44 80.2,-219.55"
         style="fill:#171717;fill-opacity:1;fill-rule:nonzero;stroke:none"
         id="path82" /><path
         d="m 19284.2,1379.35 c -33.4,8.59 -65.9,12.89 -97.4,12.89 -54.9,0 -103.1,-14.33 -144.7,-42.97 -41.5,-28.65 -74.9,-71.79 -100.2,-129.24 -25.3,-57.62 -38,-117.37 -38,-179.45 0,-49.65 9.4,-87.299 28.3,-112.76 18.8,-25.621 46.2,-38.359 82,-38.359 50.1,0 95.7,26.98 136.8,80.93 41.1,53.959 71.9,127.249 92.4,219.869 z m 65.9,-608.78 h -175.5 c 0,22.442 4.3,68.039 12.9,136.789 h -2.8 c -34.9,-53.468 -70.5,-92.617 -107.2,-117.449 -36.4,-24.828 -78.3,-37.238 -125.6,-37.238 -70.2,0 -124.8,24.187 -163.7,72.648 -38.9,48.469 -58.3,116.66 -58.3,204.51 0,89.29 19.9,172.69 59.7,250.37 39.9,77.51 94.6,137.18 164.1,179.04 69.4,41.7 148.4,62.64 236.7,62.64 42,0 82.1,-4.31 120.3,-12.91 l 74.5,347.37 h 170.4 l -179,-852.29 c -5.7,-24.339 -11.6,-61.82 -17.5,-112.441 -6.1,-50.609 -9,-90.961 -9,-121.039"
         style="fill:#171717;fill-opacity:1;fill-rule:nonzero;stroke:none"
         id="path84" /><path
         d="m 20064.2,1319.18 c 0,23.88 -8.8,42.82 -26.1,56.98 -17.6,14.01 -41.5,21.09 -72.1,21.09 -50.6,0 -96.4,-20.77 -137.5,-62.31 -41,-41.54 -68,-92.63 -80.9,-153.27 211,0 316.6,45.84 316.6,137.51 z m 167.5,4.31 c 0,-88.34 -41,-153.43 -123.1,-195.13 -82.2,-41.87 -206.8,-63.66 -373.9,-65.58 l -1.4,-7.88 v -14.32 c 0,-49.65 14.8,-88.26 44.4,-115.631 29.6,-27.527 70.9,-41.219 123.9,-41.219 36.3,0 75,6.52 116.4,19.739 41.2,13.043 79.1,29.922 113.5,50.453 l -28.7,-142.524 c -72.1,-39.148 -151.6,-58.726 -238.5,-58.726 -95,0 -169.2,26.5 -222.4,79.5 -53.2,53 -79.8,127.719 -79.8,224.168 0,83.07 18.1,160.83 54.4,233.08 36.3,72.42 86.9,129.15 151.9,170.46 64.9,41.3 136,62 213.4,62 76.9,0 137.7,-18.15 182.6,-54.44 44.9,-36.29 67.3,-84.28 67.3,-143.95"
         style="fill:#171717;fill-opacity:1;fill-rule:nonzero;stroke:none"
         id="path86" /><path
         d="m 21437.1,1324.2 c 0,-25.78 -7.1,-72.81 -21.5,-141.09 l -87.3,-412.54 h -173.4 l 88.8,423.99 c 9.6,51.09 14.4,82.36 14.4,93.83 0,64.45 -29.2,96.69 -87.4,96.69 -31,0 -63.9,-12.34 -98.4,-36.93 -34.7,-24.59 -65.3,-56.9 -91.7,-97.01 -26.6,-40.1 -44.1,-80.93 -52.7,-122.47 l -76.6,-358.1 h -174.1 l 231.4,1085.77 h 173.3 L 20973,1347.12 h 2.9 c 39.6,55.38 83.5,98.36 131.8,128.92 48.2,30.55 96.4,45.84 144.6,45.84 61.2,0 107.2,-17.36 138.3,-51.98 31,-34.61 46.5,-83.15 46.5,-145.7"
         style="fill:#171717;fill-opacity:1;fill-rule:nonzero;stroke:none"
         id="path88" /><path
         d="m 21921.3,1752.49 c 0,-28.65 -10.3,-52.44 -30.8,-71.22 -20.5,-18.95 -45.6,-28.33 -75.2,-28.33 -28.7,0 -52.9,8.59 -72.8,25.78 -19.8,17.19 -29.6,39.86 -29.6,68.04 0,29.13 10.5,52.76 31.5,70.91 21,18.14 46.3,27.21 75.9,27.21 27.7,0 51.4,-8.76 71.2,-26.1 19.8,-17.51 29.8,-39.55 29.8,-66.29 z M 21369.8,426.07 c -56.8,0 -100.5,7.41 -131.1,22.211 l 28.7,141.809 c 11,-7.641 25,-14.168 41.9,-19.738 17,-5.411 31.4,-8.192 43.3,-8.192 42.5,0 78.2,17.82 107.1,53.399 28.9,35.562 51.4,91.511 67.7,167.91 l 153.2,720.491 h 173.4 l -154,-723.358 c -26.8,-122.711 -67.3,-212.473 -121.4,-269.293 -54.3,-56.829 -123.8,-85.239 -208.8,-85.239"
         style="fill:#171717;fill-opacity:1;fill-rule:nonzero;stroke:none"
         id="path90" /><path
         d="m 22421.9,1319.18 c 0,23.88 -8.8,42.82 -26.1,56.98 -17.5,14.01 -41.5,21.09 -72,21.09 -50.6,0 -96.5,-20.77 -137.5,-62.31 -41.1,-41.54 -68.1,-92.63 -81,-153.27 211.1,0 316.6,45.84 316.6,137.51 z m 167.6,4.31 c 0,-88.34 -41.1,-153.43 -123.2,-195.13 -82.1,-41.87 -206.7,-63.66 -373.8,-65.58 l -1.5,-7.88 v -14.32 c 0,-49.65 14.8,-88.26 44.4,-115.631 29.6,-27.527 70.9,-41.219 123.9,-41.219 36.3,0 75.1,6.52 116.4,19.739 41.3,13.043 79.1,29.922 113.5,50.453 l -28.6,-142.524 c -72.1,-39.148 -151.6,-58.726 -238.5,-58.726 -95,0 -169.2,26.5 -222.4,79.5 -53.3,53 -79.9,127.719 -79.9,224.168 0,83.07 18.2,160.83 54.5,233.08 36.3,72.42 86.9,129.15 151.8,170.46 64.9,41.3 136.1,62 213.4,62 76.9,0 137.8,-18.15 182.7,-54.44 44.9,-36.29 67.3,-84.28 67.3,-143.95"
         style="fill:#171717;fill-opacity:1;fill-rule:nonzero;stroke:none"
         id="path92" /><path
         d="m 23180.4,1337.09 c -29.2,15.28 -57.3,22.92 -84.6,22.92 -49.6,0 -94.8,-25.07 -135.7,-75.21 -40.8,-50.13 -70,-116.98 -87.7,-200.53 l -66.6,-313.7 h -173.3 l 101.7,477 c 24.3,118.89 38.6,204.35 42.9,256.39 h 170.5 c -4.8,-46.31 -11.5,-97.88 -20.1,-154.69 h 2.9 c 30.1,54.43 61.7,96.77 94.9,127.17 33.1,30.23 72,45.44 116.4,45.44 18.1,0 42.2,-3.59 72.3,-10.76 l -33.6,-174.03"
         style="fill:#171717;fill-opacity:1;fill-rule:nonzero;stroke:none"
         id="path94" /><path
         d="m 23726.1,1370.75 h -178.3 l -70.2,-331.6 c -8.6,-41.541 -12.9,-69.47 -12.9,-83.798 0,-21.961 5,-37.883 15,-47.59 10.1,-9.86 26.5,-14.711 49.5,-14.711 21.9,0 55.3,8.59 100.2,25.781 l -28.6,-135.363 c -47.8,-18.629 -95,-27.938 -141.8,-27.938 -113.2,0 -169.8,55.141 -169.8,165.449 0,27.692 5,63.969 15.1,108.85 l 71.6,340.92 h -117.5 l 31.5,133.21 h 113.9 l 38,175.47 181.9,47.99 -46.6,-223.46 h 179.8 l -30.8,-133.21"
         style="fill:#171717;fill-opacity:1;fill-rule:nonzero;stroke:none"
         id="path96" /><path
         d="m 24264,1319.18 c 0,23.88 -8.8,42.82 -26.1,56.98 -17.5,14.01 -41.5,21.09 -72,21.09 -50.6,0 -96.5,-20.77 -137.6,-62.31 -41,-41.54 -68,-92.63 -80.9,-153.27 211.1,0 316.6,45.84 316.6,137.51 z m 167.6,4.31 c 0,-88.34 -41.1,-153.43 -123.2,-195.13 -82.1,-41.87 -206.8,-63.66 -373.9,-65.58 l -1.4,-7.88 v -14.32 c 0,-49.65 14.8,-88.26 44.4,-115.631 29.6,-27.527 70.9,-41.219 123.9,-41.219 36.3,0 75,6.52 116.4,19.739 41.2,13.043 79.1,29.922 113.5,50.453 l -28.6,-142.524 c -72.1,-39.148 -151.6,-58.726 -238.5,-58.726 -95.1,0 -169.2,26.5 -222.5,79.5 -53.2,53 -79.8,127.719 -79.8,224.168 0,83.07 18.2,160.83 54.5,233.08 36.2,72.42 86.9,129.15 151.8,170.46 64.9,41.3 136.1,62 213.4,62 76.9,0 137.8,-18.15 182.6,-54.44 44.9,-36.29 67.4,-84.28 67.4,-143.95"
         style="fill:#171717;fill-opacity:1;fill-rule:nonzero;stroke:none"
         id="path98" /></g></g></svg>
